<?xml version="1.0" encoding="UTF-8" standalone="no"?>
<!-- Created with Inkscape (http://www.inkscape.org/) -->

<svg
   xmlns:dc="http://purl.org/dc/elements/1.1/"
   xmlns:cc="http://creativecommons.org/ns#"
   xmlns:rdf="http://www.w3.org/1999/02/22-rdf-syntax-ns#"
   xmlns:svg="http://www.w3.org/2000/svg"
   xmlns="http://www.w3.org/2000/svg"
   xmlns:xlink="http://www.w3.org/1999/xlink"
   xmlns:sodipodi="http://sodipodi.sourceforge.net/DTD/sodipodi-0.dtd"
   xmlns:inkscape="http://www.inkscape.org/namespaces/inkscape"
   width="32"
   version="1.1"
   height="32"
   id="svg22"
   sodipodi:docname="fonts.svg"
   inkscape:version="0.92.4 (5da689c313, 2019-01-14)">
  <sodipodi:namedview
     pagecolor="#ffffff"
     bordercolor="#666666"
     borderopacity="1"
     objecttolerance="10"
     gridtolerance="10"
     guidetolerance="10"
     inkscape:pageopacity="0"
     inkscape:pageshadow="2"
     inkscape:window-width="1920"
     inkscape:window-height="1017"
     id="namedview24"
     showgrid="false"
     inkscape:zoom="1.3037281"
     inkscape:cx="-316.39394"
     inkscape:cy="191.75879"
     inkscape:window-x="-8"
     inkscape:window-y="-8"
     inkscape:window-maximized="1"
     inkscape:current-layer="layer1" />
  <defs
     id="defs5455">
    <linearGradient
       inkscape:collect="always"
       id="linearGradient4159">
      <stop
         style="stop-color:#2a2c2f"
         id="stop4161" />
      <stop
         offset="1"
         style="stop-color:#424649"
         id="stop4163" />
    </linearGradient>
    <linearGradient
       inkscape:collect="always"
       xlink:href="#linearGradient4159"
       id="linearGradient4274"
       y1="545.79797"
       y2="517.79797"
       x2="0"
       gradientUnits="userSpaceOnUse"
       gradientTransform="translate(1.7010498e-6,3.9718628e-5)" />
    <linearGradient
       inkscape:collect="always"
       id="linearGradient4219">
      <stop
         style="stop-color:#999a9c"
         id="stop4221" />
      <stop
         offset="1"
         style="stop-color:#f4f5f5"
         id="stop4223" />
    </linearGradient>
    <linearGradient
       inkscape:collect="always"
       xlink:href="#linearGradient4219"
       id="linearGradient4309"
       y1="537.79797"
       y2="525.79797"
       x2="0"
       gradientUnits="userSpaceOnUse"
       gradientTransform="translate(3.8399822)" />
    <linearGradient
       inkscape:collect="always"
       xlink:href="#linearGradient4227"
       id="linearGradient4387"
       y1="9"
       x1="9"
       y2="23"
       x2="23"
       gradientUnits="userSpaceOnUse" />
    <linearGradient
       inkscape:collect="always"
       id="linearGradient4227">
      <stop
         style="stop-color:#292c2f"
         id="stop4229" />
      <stop
         offset="1"
         style="stop-opacity:0"
         id="stop4231" />
    </linearGradient>
    <linearGradient
       inkscape:collect="always"
       xlink:href="#linearGradient4219"
       id="linearGradient3729"
       gradientUnits="userSpaceOnUse"
       y1="537.79797"
       x2="0"
       y2="525.79797"
       gradientTransform="matrix(0.79276294,0,0,0.79276294,81.746712,110.28553)" />
    <linearGradient
       inkscape:collect="always"
       xlink:href="#linearGradient4219"
       id="linearGradient3735"
       gradientUnits="userSpaceOnUse"
       gradientTransform="matrix(0.79276294,0,0,0.79276294,82.754495,110.13097)"
       y1="537.79797"
       x2="0"
       y2="525.79797" />
  </defs>
  <metadata
     id="metadata5458">
    <rdf:RDF>
      <cc:Work
         rdf:about="">
        <dc:format>image/svg+xml</dc:format>
        <dc:type
           rdf:resource="http://purl.org/dc/dcmitype/StillImage" />
      </cc:Work>
    </rdf:RDF>
  </metadata>
  <g
     inkscape:label="Capa 1"
     inkscape:groupmode="layer"
     id="layer1"
     transform="matrix(1 0 0 1 -384.57143 -515.798)">
    <rect
       width="27.999973"
       x="386.57144"
       y="517.79803"
       rx="13.999987"
       height="27.999973"
       style="fill:url(#linearGradient4274)"
       id="rect4179" />
    <path
       style="fill:url(#linearGradient4387);opacity:0.2;fill-rule:evenodd"
       id="path4361"
       d="M 13.28125 9.9707031 L 7.1699219 21.833984 L 15.302734 29.964844 C 15.535266 29.97622 15.764549 30 16 30 C 22.680701 30 28.227665 25.362327 29.640625 19.121094 L 24.289062 13.769531 L 20.960938 13.482422 L 19.058594 14.570312 L 19.138672 14.623047 L 19.074219 14.611328 L 21.697266 17.234375 L 21.160156 17.851562 L 13.28125 9.9707031 z "
       transform="matrix(1 0 0 1 384.57143 515.798)" />
    <g
       id="g3749"
       transform="matrix(0.90735864,0,0,0.90735864,37.801456,48.830883)">
      <path
         style="fill:url(#linearGradient3729);stroke-width:0.79276294"
         id="path4233"
         d="m 394.90769,532.66112 1.58453,-4.48307 1.42995,4.48307 z m 4.41865,3.83895 H 400.46 l -3.31077,-9.40414 h -1.33978 l -3.50401,9.40414 h 1.13365 l 1.12077,-2.97583 h 3.7359 z"
         inkscape:connector-curvature="0" />
      <path
         style="fill:url(#linearGradient3735);stroke-width:0.79276294"
         id="path4235"
         d="m 404.24616,535.67563 c -0.65701,0 -1.14653,-0.32206 -1.14653,-1.09501 0,-0.96617 0.5797,-1.27535 2.53783,-1.533 0.0129,0 0.63124,-0.0902 0.63124,-0.0902 v 1.70048 c -0.45089,0.61835 -1.36554,1.0177 -2.02254,1.0177 z m 2.0483,-0.0902 0.15459,0.76005 h 0.86312 v -5.07566 c 0,-1.54588 -1.06925,-1.99676 -2.43478,-1.99676 -0.97906,0 -1.89371,0.24476 -2.42188,0.52818 l 0.29629,0.82447 c 0.56683,-0.27053 1.3913,-0.46377 2.15136,-0.46377 0.9533,0 1.36554,0.438 1.36554,1.27536 v 0.78582 l -0.69566,0.0773 c -1.77777,0.25765 -3.52977,0.50241 -3.52977,2.31883 0,1.28824 0.96618,1.88082 2.09983,1.88082 0.72141,0 1.54588,-0.23188 2.15136,-0.91464 z"
         inkscape:connector-curvature="0" />
    </g>
  </g>
</svg>
