<?xml version="1.0" encoding="UTF-8" standalone="no"?><!DOCTYPE svg PUBLIC "-//W3C//DTD SVG 1.1//EN" "http://www.w3.org/Graphics/SVG/1.1/DTD/svg11.dtd"><svg width="100%" height="100%" viewBox="0 0 210 60" version="1.1" xmlns="http://www.w3.org/2000/svg" xmlns:xlink="http://www.w3.org/1999/xlink" xml:space="preserve" xmlns:serif="http://www.serif.com/" style="fill-rule:evenodd;clip-rule:evenodd;stroke-linejoin:round;stroke-miterlimit:2;"><rect id="_280x80" serif:id="280x80" x="0" y="0" width="210" height="60" style="fill:none;"/><clipPath id="_clip1"><rect x="0" y="0" width="210" height="60"/></clipPath><g clip-path="url(#_clip1)"><path d="M99.112,0.076c-4.042,0.594 -7.431,2.058 -10.492,3.212c-6.253,2.357 -11.826,2.719 -12.271,3.163c-0.445,0.445 0.99,1.294 0.261,2.172c-0.889,1.073 -4.343,0.679 -4.552,1.151c-0.465,1.048 2.486,1.701 2.198,2.774c-0.329,1.224 -2.668,0.393 -2.878,1.203c-0.54,2.079 6.614,0.644 2.773,3.454c0.551,0.232 1.271,0.125 1.881,0.059c2.594,-0.335 3.369,0.663 3.195,3.185c-0.608,-2.627 -0.996,-2.658 -2.936,-2.537c-0.631,0.04 -1.198,0.397 -1.508,0.948c-0.833,1.481 -1.526,3.155 -2.099,4.72c-0.183,0.5 0.171,1.023 0.701,1.058c3.012,0.199 5.949,1.825 7.399,4.528c1.182,-3.296 3.488,-6.252 6.569,-7.952c-0.899,0.028 -1.798,-0.022 -2.682,-0.17c1.876,-0.204 3.737,-0.349 5.548,-0.868c1.788,-0.555 3.52,-1.354 5.316,-1.935c-2.166,1.377 -4.54,2.682 -7.143,2.907c-3.56,1.629 -6.081,5.198 -7.169,8.881c3.049,4.767 6.072,6.149 10.755,2.306c-0.041,-5.602 7.694,-12.792 10.909,-15.529c2.435,-1.311 7.276,-4.498 7.667,-7.381c0.044,-0.321 -0.119,-0.468 -0.318,-0.533c-3.687,1.544 -7.503,2.787 -11.402,3.67c-0.546,0.128 -1.654,0.349 -2.206,0.446c-0.734,0.174 -1.494,0.136 -2.203,0.556c-0.819,0.468 -1.532,-0.74 -0.731,-1.233c0.182,-0.108 0.392,-0.126 0.58,-0.067c0.383,0.11 0.755,0.107 1.122,0.071l0.55,-0.065c5.003,-0.712 9.928,-2.106 14.55,-4.152c1.388,-1.145 -4.264,-8.118 -10.307,-8.118c-0.358,0 -0.718,0.025 -1.077,0.076Zm-9.075,6.158c0.372,-0.294 1.395,-1.209 2.046,-1.271c0.652,-0.062 2.097,0.042 2.636,0.31c0.998,0.496 2.635,1.845 2.635,2.17c0,0.388 -0.558,0.093 -0.558,0.093c-0.124,0.435 -1.606,1.857 -2.232,1.985c-0.386,0.078 -0.735,0.114 -1.054,0.114c-2.829,-0 -3.138,-2.815 -3.473,-3.401Zm14.569,0.217c0.003,-0.581 0.887,-0.581 0.89,0c-0.001,0.291 -0.223,0.437 -0.445,0.437c-0.222,-0 -0.443,-0.146 -0.445,-0.437Zm-1.302,10c-0.234,0.205 -0.401,0.342 -0.415,0.353c0.145,-0.124 0.283,-0.242 0.415,-0.353Zm11.992,-7.545c0.328,-0.078 0.658,-0.15 0.991,-0.213c3.181,-0.554 6.663,-0.261 9.564,1.48c0.341,0.204 0.716,0.341 1.108,0.276c0.935,-0.156 1.887,-0.202 2.823,-0.156c-3.337,-1.564 -6.474,-2.271 -9.305,-2.271c-1.872,-0 -3.609,0.309 -5.181,0.884Zm1.051,0.205c-0.639,0.065 -1.277,0.155 -1.915,0.257c-0.245,0.039 -0.485,0.113 -0.706,0.226c-2.753,1.407 -4.863,3.834 -6.153,6.621c3.469,-1.131 7.243,-1.263 10.84,-0.693c0.492,0.079 0.985,-0.138 1.254,-0.557c0.738,-1.15 1.754,-2.119 2.902,-2.854c0.709,-0.458 1.47,-0.828 2.258,-1.112c0.361,-0.129 0.401,-0.629 0.061,-0.806c-1.79,-0.93 -3.839,-1.222 -5.878,-1.222c-0.897,0 -1.793,0.057 -2.663,0.14Zm2.414,9.037c4.798,-2.416 9.947,-0.737 13.903,0.942c3.296,1.399 5.764,2.798 6.51,1.827c1.554,-2.02 -3.844,-7.918 -8.933,-10.409c-0.011,-0.005 -0.021,-0.01 -0.032,-0.015c-4.762,0.442 -9.905,2.8 -11.448,7.655Zm-10.82,-1.411c-0.425,0.094 -0.778,0.391 -0.936,0.797c-1.125,2.894 -1.54,5.934 -1.761,8.858c-0.059,0.778 0.46,1.482 1.218,1.663c3.94,0.945 7.953,1.572 11.959,2.19c0.982,0.151 1.831,-0.688 1.694,-1.672c-0.605,-4.335 -1.66,-6.669 -1.678,-9.116l-0.001,0.004c-0.06,-0.767 0.029,-1.549 0.24,-2.304c0.158,-0.566 -0.242,-1.134 -0.83,-1.149c-0.639,-0.018 -1.28,-0.028 -1.921,-0.028c-2.682,0 -5.371,0.178 -7.984,0.757Zm-11.829,11.401c-0.456,-0.638 0.716,-2.5 -0.075,-2.479c-1.605,0.044 -0.32,3.121 -1.46,4.419c-1.885,2.543 -4.514,5.519 -8.001,5.306c-3.554,-0.236 -5.398,-4.957 -7.172,-7.091c-0.827,-0.805 -1.763,-1.474 -2.791,-1.966c-1.027,-0.496 -2.137,-0.819 -3.282,-1.026c-0.674,-0.125 -1.335,0.295 -1.521,0.954c-1.269,4.472 -1.535,8.715 -0.983,12.587c0.062,0.437 0.519,0.69 0.929,0.526c0.192,-0.078 0.388,-0.148 0.587,-0.212c2.179,-0.701 4.617,-0.197 6.576,0.866c0.829,0.44 1.595,0.974 2.308,1.565c0.753,0.392 1.537,0.71 2.341,0.908c6.023,1.392 9.555,-5.078 12.334,-9.347c0.119,-0.235 0.427,-0.226 0.794,-0.217c0.414,0.01 0.904,0.021 1.291,-0.315c0.427,-0.371 1.011,-1.412 1.839,-2.017c1.1,-0.803 1.853,-0.104 2.2,-1.421c0.093,-0.353 -0.651,-0.262 -1.342,-0.172c-0.506,0.066 -0.983,0.133 -1.084,0.025c-0.224,-0.238 0.084,-0.603 1.171,-1.39c0.722,-0.523 1.353,-0.643 1.127,-1.549c-0.175,-0.702 -1.051,-0.088 -1.849,0.525c-0.625,0.482 -1.203,0.963 -1.356,0.809c-0.158,-0.158 -0.151,-0.332 0.602,-1.234c0.909,-1.087 1.575,-1.02 1.257,-1.949c-0.035,-0.1 -0.116,-0.146 -0.235,-0.146c-0.793,-0 -3.235,2.064 -4.205,4.041Zm7.226,10.683c1.343,1.191 2.851,2.185 4.414,3.064c2.629,1.471 5.431,2.661 8.344,3.438c1.137,0.303 2.329,-0.304 2.754,-1.401c1.429,-3.69 1.878,-7.847 1.627,-11.737c-0.042,-0.643 -0.555,-1.155 -1.197,-1.204c-4.802,-0.369 -9.619,-1.149 -14.154,-2.797c-0.24,4.181 -0.299,7.998 -1.788,10.637Zm-16.989,4.589c5.059,3.138 12.374,1.679 15.712,-3.296c-2.454,1.141 -6.176,0.07 -8.347,-2.576c-1.645,2.667 -4.048,5.411 -7.365,5.872Zm13.251,0.072c-2.896,4.223 -2.441,9.817 -0.212,14.274c0.544,1.087 1.78,1.635 2.952,1.307c6.541,-1.828 11.716,-6.204 14.848,-11.692c0.304,-0.533 -0.006,-1.208 -0.611,-1.31c-0.298,-0.051 -0.596,-0.107 -0.891,-0.17c-4.66,-1.054 -9.217,-3.229 -12.59,-6.664c-0.823,1.654 -2.015,3.125 -3.496,4.255Zm-26.999,-3.633c-0.872,0.187 -1.406,1.079 -1.18,1.941c1.379,5.242 4.325,9.653 8.298,12.819c0.131,-0.374 0.282,-0.74 0.45,-1.097c1.827,-3.716 5.237,-6.797 9.24,-7.957c-1.63,-0.372 -3.187,-1.095 -4.511,-2.124c-1.494,-0.13 -2.91,-0.783 -4.118,-1.616c-0.631,-0.545 -1.37,-0.902 -2.139,-1.204c-1.4,-0.585 -2.853,-0.943 -4.302,-0.943c-0.581,-0 -1.162,0.058 -1.738,0.181Zm21.798,5.85c-1.147,0.181 -2.311,0.212 -3.464,0.102c-0.447,-0.07 -0.868,-0.122 -1.281,0.11c-3.548,1.493 -6.653,4.195 -8.653,7.506c-0.528,0.874 -0.251,2.006 0.604,2.565c4.782,3.12 11.133,4.573 17.045,3.824c0.565,-0.071 0.859,-0.705 0.547,-1.181c-0.21,-0.321 -0.408,-0.65 -0.593,-0.987c-2.257,-4.081 -2.679,-9.521 0.026,-13.496c-1.291,0.787 -2.739,1.312 -4.231,1.557Z" style="fill:url(#_Linear2);fill-rule:nonzero;"/></g><defs><linearGradient id="_Linear2" x1="0" y1="0" x2="1" y2="0" gradientUnits="userSpaceOnUse" gradientTransform="matrix(64.5512,-1.94383e-30,-1.94383e-30,64.5512,73.4189,30)"><stop offset="0" style="stop-color:#313435;stop-opacity:1"/><stop offset="0.5" style="stop-color:#46b72b;stop-opacity:1"/><stop offset="1" style="stop-color:#94cc25;stop-opacity:1"/></linearGradient></defs></svg>