<?xml version="1.0" encoding="UTF-8" standalone="no"?>
<svg
   xmlns:dc="http://purl.org/dc/elements/1.1/"
   xmlns:cc="http://creativecommons.org/ns#"
   xmlns:rdf="http://www.w3.org/1999/02/22-rdf-syntax-ns#"
   xmlns:svg="http://www.w3.org/2000/svg"
   xmlns="http://www.w3.org/2000/svg"
   xmlns:sodipodi="http://sodipodi.sourceforge.net/DTD/sodipodi-0.dtd"
   xmlns:inkscape="http://www.inkscape.org/namespaces/inkscape"
   viewBox="0 0 16 16"
   version="1.1"
   id="svg6"
   sodipodi:docname="edit-undo.svg"
   inkscape:version="0.92.4 (5da689c313, 2019-01-14)">
  <metadata
     id="metadata10">
    <rdf:RDF>
      <cc:Work
         rdf:about="">
        <dc:format>image/svg+xml</dc:format>
        <dc:type
           rdf:resource="http://purl.org/dc/dcmitype/StillImage" />
      </cc:Work>
    </rdf:RDF>
  </metadata>
  <sodipodi:namedview
     pagecolor="#ffffff"
     bordercolor="#666666"
     borderopacity="1"
     objecttolerance="10"
     gridtolerance="10"
     guidetolerance="10"
     inkscape:pageopacity="0"
     inkscape:pageshadow="2"
     inkscape:window-width="1920"
     inkscape:window-height="1016"
     id="namedview8"
     showgrid="false"
     inkscape:zoom="20.85965"
     inkscape:cx="10.659288"
     inkscape:cy="5.9432931"
     inkscape:window-x="1912"
     inkscape:window-y="-8"
     inkscape:window-maximized="1"
     inkscape:current-layer="svg6" />
  <defs
     id="defs3051">
    <style
       type="text/css"
       id="current-color-scheme">
      .ColorScheme-Text {
        color:#4d4d4d;
      }
      </style>
    <pattern
       y="0"
       x="0"
       height="6"
       width="6"
       patternUnits="userSpaceOnUse"
       id="EMFhbasepattern" />
  </defs>
  <g
     id="g13"
     transform="matrix(1.9377132,0,0,1.9377132,-7.5017052,-7.5017053)">
    <path
       inkscape:connector-curvature="0"
       id="path4"
       d="M 8.752308,7.9999992 A 0.75230794,0.75230794 0 0 0 7.9999989,7.2476922 0.75230794,0.75230794 0 0 0 7.247692,7.9999992 0.75230794,0.75230794 0 0 0 7.9999989,8.7523078 0.75230794,0.75230794 0 0 0 8.752308,7.9999992 Z"
       style="color:#4d4d4d;fill:none;fill-opacity:1;stroke:#3daee9;stroke-width:0.43286598;stroke-miterlimit:4;stroke-dasharray:none" />
    <path
       inkscape:connector-curvature="0"
       style="fill:#4d4d4d;fill-opacity:1;fill-rule:nonzero;stroke:none;stroke-width:0.34082776"
       d="m 8.0000007,5.9550487 c -0.4362561,0 -0.8452471,0.1363301 -1.1724391,0.3817243 l 0.245394,0.2453942 C 7.3456156,6.391305 7.6728087,6.309507 8.0000007,6.309507 c 0.9543109,0 1.717759,0.7361825 1.717759,1.6904932 -0.02727,0.3271921 -0.109064,0.6543844 -0.299926,0.9270446 l 0.245394,0.245394 C 9.9086216,8.8452467 10.044951,8.4362564 10.044951,8.0000002 c 0,-1.1179068 -0.9270434,-2.0449515 -2.0449503,-2.0449515 z M 6.3367736,6.8275613 c -0.245394,0.3271922 -0.381725,0.7361825 -0.381725,1.1724389 0,1.1179069 0.927045,2.0449508 2.044952,2.0449508 0.436256,0 0.845246,-0.1363292 1.172439,-0.3817242 l -0.245395,-0.245394 c -0.27266,0.190862 -0.599852,0.27266 -0.927044,0.299926 -0.954311,0 -1.717759,-0.763448 -1.690493,-1.7177586 0,-0.3271923 0.0818,-0.6543845 0.27266,-0.9270447 z m 2.6993361,1.499631 h -2.072218 2.072218 V 7.6455419 Z"
       id="path18" />
  </g>
</svg>
