<?xml version="1.0" encoding="UTF-8" standalone="no"?>
<svg
   xmlns:dc="http://purl.org/dc/elements/1.1/"
   xmlns:cc="http://creativecommons.org/ns#"
   xmlns:rdf="http://www.w3.org/1999/02/22-rdf-syntax-ns#"
   xmlns:svg="http://www.w3.org/2000/svg"
   xmlns="http://www.w3.org/2000/svg"
   xmlns:sodipodi="http://sodipodi.sourceforge.net/DTD/sodipodi-0.dtd"
   xmlns:inkscape="http://www.inkscape.org/namespaces/inkscape"
   viewBox="0 0 16 16"
   version="1.1"
   id="svg6"
   sodipodi:docname="edit-redo.svg"
   inkscape:version="0.92.4 (5da689c313, 2019-01-14)">
  <metadata
     id="metadata10">
    <rdf:RDF>
      <cc:Work
         rdf:about="">
        <dc:format>image/svg+xml</dc:format>
        <dc:type
           rdf:resource="http://purl.org/dc/dcmitype/StillImage" />
      </cc:Work>
    </rdf:RDF>
  </metadata>
  <sodipodi:namedview
     pagecolor="#ffffff"
     bordercolor="#666666"
     borderopacity="1"
     objecttolerance="10"
     gridtolerance="10"
     guidetolerance="10"
     inkscape:pageopacity="0"
     inkscape:pageshadow="2"
     inkscape:window-width="1920"
     inkscape:window-height="1016"
     id="namedview8"
     showgrid="false"
     inkscape:zoom="59"
     inkscape:cx="6.894275"
     inkscape:cy="7.5944719"
     inkscape:window-x="1912"
     inkscape:window-y="-8"
     inkscape:window-maximized="1"
     inkscape:current-layer="svg6" />
  <defs
     id="defs3051">
    <style
       type="text/css"
       id="current-color-scheme">
      .ColorScheme-Text {
        color:#4d4d4d;
      }
      </style>
  </defs>
  <path
     id="path18"
     d="m 7.9999982,11.962529 c 0.8453392,0 1.6378465,-0.264169 2.2718508,-0.739672 L 9.7963459,10.747353 c -0.5283369,0.369836 -1.1623433,0.528338 -1.7963477,0.528338 -1.8491808,0 -3.3285241,-1.4265111 -3.3285241,-3.2756916 0.05284,-0.6340044 0.211335,-1.2680093 0.581171,-1.7963465 L 4.777141,5.7281501 c -0.475503,0.634004 -0.73967,1.4265099 -0.73967,2.2718493 0,2.1661826 1.796344,3.9625296 3.9625272,3.9625296 z M 11.222855,10.27185 c 0.475504,-0.6340049 0.739674,-1.4265108 0.739674,-2.2718506 0,-2.1661833 -1.796347,-3.9625283 -3.9625306,-3.9625283 -0.845339,0 -1.6378443,0.264167 -2.2718504,0.739672 l 0.475505,0.475503 c 0.5283369,-0.369835 1.1623412,-0.528337 1.7963454,-0.58117 1.8491811,0 3.3285246,1.4793431 3.2756906,3.3285233 0,0.6340049 -0.158505,1.2680095 -0.528337,1.7963468 z M 5.992316,7.365995 H 10.00768 5.992316 v 1.3208429 z"
     style="fill:#3daee9;fill-opacity:1;fill-rule:nonzero;stroke:none;stroke-width:0.66042644"
     inkscape:connector-curvature="0" />
  <circle
     style="opacity:1;fill:#4d4d4d;fill-opacity:1;fill-rule:nonzero;stroke:#4d4d4d;stroke-width:1.19299996;stroke-miterlimit:4;stroke-dasharray:none;stroke-opacity:1;paint-order:fill markers stroke"
     id="path21"
     cx="8"
     cy="8"
     r="1.1864407" />
</svg>
