<?xml version="1.0" encoding="UTF-8" standalone="no"?>
<svg
   xmlns:dc="http://purl.org/dc/elements/1.1/"
   xmlns:cc="http://creativecommons.org/ns#"
   xmlns:rdf="http://www.w3.org/1999/02/22-rdf-syntax-ns#"
   xmlns:svg="http://www.w3.org/2000/svg"
   xmlns="http://www.w3.org/2000/svg"
   xmlns:sodipodi="http://sodipodi.sourceforge.net/DTD/sodipodi-0.dtd"
   xmlns:inkscape="http://www.inkscape.org/namespaces/inkscape"
   viewBox="0 0 16 16"
   version="1.1"
   id="svg6"
   sodipodi:docname="help-about.svg"
   inkscape:version="0.92.4 (5da689c313, 2019-01-14)">
  <metadata
     id="metadata10">
    <rdf:RDF>
      <cc:Work
         rdf:about="">
        <dc:format>image/svg+xml</dc:format>
        <dc:type
           rdf:resource="http://purl.org/dc/dcmitype/StillImage" />
      </cc:Work>
    </rdf:RDF>
  </metadata>
  <sodipodi:namedview
     pagecolor="#ffffff"
     bordercolor="#666666"
     borderopacity="1"
     objecttolerance="10"
     gridtolerance="10"
     guidetolerance="10"
     inkscape:pageopacity="0"
     inkscape:pageshadow="2"
     inkscape:window-width="1920"
     inkscape:window-height="1017"
     id="namedview8"
     showgrid="false"
     inkscape:zoom="14.75"
     inkscape:cx="9.2965896"
     inkscape:cy="16.884324"
     inkscape:window-x="-8"
     inkscape:window-y="-8"
     inkscape:window-maximized="1"
     inkscape:current-layer="svg6" />
  <defs
     id="defs3051">
    <style
       type="text/css"
       id="current-color-scheme">
      .ColorScheme-Text {
        color:#4d4d4d;
      }
      </style>
  </defs>
  <g
     aria-label="?"
     style="font-style:normal;font-variant:normal;font-weight:bold;font-stretch:normal;font-size:16.22627258px;line-height:1.25;font-family:Arial;-inkscape-font-specification:'Arial Bold';letter-spacing:0px;word-spacing:0px;fill:#4d4d4d;fill-opacity:1;stroke:none;stroke-width:0.08451184"
     id="text11">
    <path
       inkscape:connector-curvature="0"
       d="M 8.9428351,10.872082 H 6.922474 q -0.00792,-0.435764 -0.00792,-0.53084 0,-0.9824502 0.3248424,-1.616289 Q 7.5642358,8.0911142 8.5387629,7.2988158 9.51329,6.5065173 9.7034416,6.2609048 9.9965921,5.8726785 9.9965921,5.4052224 q 0,-0.6496847 -0.522917,-1.1092178 -0.514994,-0.4674561 -1.3944453,-0.4674561 -0.8477594,0 -1.4182143,0.4833021 -0.5704549,0.483302 -0.7843754,1.4736751 L 3.83251,5.5319902 Q 3.9196628,4.1137759 5.0368037,3.1234029 6.1618675,2.1330298 7.984154,2.1330298 q 1.9173623,0 3.050349,1.006219 1.132987,0.9982961 1.132987,2.3293575 0,0.7368376 -0.419918,1.3944453 Q 11.335576,7.5206593 9.9728231,8.6536462 9.2676775,9.239947 9.0933718,9.5964813 8.9269891,9.9530156 8.9428351,10.872082 Z M 6.922474,13.86697 v -2.226359 h 2.2263587 v 2.226359 z"
       style="fill:#4d4d4d;stroke-width:0.08451184"
       id="path9" />
  </g>
</svg>
