<?xml version="1.0" encoding="UTF-8" standalone="no"?>
<svg
   xmlns:dc="http://purl.org/dc/elements/1.1/"
   xmlns:cc="http://creativecommons.org/ns#"
   xmlns:rdf="http://www.w3.org/1999/02/22-rdf-syntax-ns#"
   xmlns:svg="http://www.w3.org/2000/svg"
   xmlns="http://www.w3.org/2000/svg"
   xmlns:sodipodi="http://sodipodi.sourceforge.net/DTD/sodipodi-0.dtd"
   xmlns:inkscape="http://www.inkscape.org/namespaces/inkscape"
   viewBox="0 0 16 16"
   version="1.1"
   id="svg6"
   sodipodi:docname="help-contents.svg"
   inkscape:version="0.92.4 (5da689c313, 2019-01-14)">
  <metadata
     id="metadata10">
    <rdf:RDF>
      <cc:Work
         rdf:about="">
        <dc:format>image/svg+xml</dc:format>
        <dc:type
           rdf:resource="http://purl.org/dc/dcmitype/StillImage" />
      </cc:Work>
    </rdf:RDF>
  </metadata>
  <sodipodi:namedview
     pagecolor="#ffffff"
     bordercolor="#666666"
     borderopacity="1"
     objecttolerance="10"
     gridtolerance="10"
     guidetolerance="10"
     inkscape:pageopacity="0"
     inkscape:pageshadow="2"
     inkscape:window-width="1920"
     inkscape:window-height="1017"
     id="namedview8"
     showgrid="false"
     inkscape:zoom="14.75"
     inkscape:cx="-3.7227423"
     inkscape:cy="-2.3424257"
     inkscape:window-x="-8"
     inkscape:window-y="-8"
     inkscape:window-maximized="1"
     inkscape:current-layer="svg6" />
  <defs
     id="defs3051">
    <style
       type="text/css"
       id="current-color-scheme">
      .ColorScheme-Text {
        color:#4d4d4d;
      }
      </style>
  </defs>
  <g
     id="g31">
    <path
       inkscape:connector-curvature="0"
       id="path11"
       style="font-style:normal;font-variant:normal;font-weight:bold;font-stretch:normal;font-size:11.35114193px;line-height:1.25;font-family:Arial;-inkscape-font-specification:'Arial Bold';letter-spacing:0px;word-spacing:0px;fill:#4d4d4d;fill-opacity:1;stroke:none;stroke-width:0.05912054"
       d="M 8.6595633,10.009175 H 7.2462131 q -0.00554,-0.3048405 -0.00554,-0.3713511 0,-0.6872762 0.2272445,-1.1306802 Q 7.6951622,8.0637398 8.3768958,7.5094848 9.0586294,6.9552298 9.1916506,6.7834108 9.396725,6.5118258 9.396725,6.1848154 q 0,-0.4544891 -0.3658083,-0.775957 Q 8.6706484,5.081848 8.0554254,5.081848 7.4623726,5.081848 7.063309,5.4199435 6.6642454,5.7580391 6.5145966,6.4508578 L 5.0846187,6.2734962 Q 5.1455868,5.2813798 5.9270863,4.588561 6.7141284,3.8957423 7.9889148,3.8957423 q 1.3412971,0 2.1338812,0.7039038 0.792585,0.6983613 0.792585,1.6295097 0,0.5154571 -0.293755,0.9754887 Q 10.333413,7.6646762 9.3800948,8.4572608 8.8868079,8.8674095 8.7648718,9.1168242 8.6484782,9.366239 8.6595633,10.009175 Z m -1.4133502,2.095084 v -1.557457 h 1.5574565 v 1.557457 z" />
    <path
       inkscape:connector-curvature="0"
       id="path17"
       d="M 8,1.84375 C 4.6072988,1.84375 1.84375,4.6072988 1.84375,8 1.8437499,11.392701 4.6072987,14.15625 8,14.15625 11.392701,14.15625 14.15625,11.392701 14.15625,8 14.15625,4.6072987 11.392701,1.8437499 8,1.84375 Z M 8,3.0371094 C 10.747956,3.0371093 12.962891,5.2520438 12.962891,8 12.962891,10.747956 10.747956,12.962891 8,12.962891 5.2520438,12.962891 3.0371093,10.747956 3.0371094,8 3.0371094,5.2520438 5.2520438,3.0371094 8,3.0371094 Z"
       style="color:#000000;font-style:normal;font-variant:normal;font-weight:normal;font-stretch:normal;font-size:medium;line-height:normal;font-family:sans-serif;font-variant-ligatures:normal;font-variant-position:normal;font-variant-caps:normal;font-variant-numeric:normal;font-variant-alternates:normal;font-feature-settings:normal;text-indent:0;text-align:start;text-decoration:none;text-decoration-line:none;text-decoration-style:solid;text-decoration-color:#000000;letter-spacing:normal;word-spacing:normal;text-transform:none;writing-mode:lr-tb;direction:ltr;text-orientation:mixed;dominant-baseline:auto;baseline-shift:baseline;text-anchor:start;white-space:normal;shape-padding:0;clip-rule:nonzero;display:inline;overflow:visible;visibility:visible;opacity:1;isolation:auto;mix-blend-mode:normal;color-interpolation:sRGB;color-interpolation-filters:linearRGB;solid-color:#000000;solid-opacity:1;vector-effect:none;fill:#4d4d4d;fill-opacity:1;fill-rule:nonzero;stroke:none;stroke-width:1.19299996;stroke-linecap:butt;stroke-linejoin:miter;stroke-miterlimit:4;stroke-dasharray:none;stroke-dashoffset:0;stroke-opacity:1;paint-order:fill markers stroke;color-rendering:auto;image-rendering:auto;shape-rendering:auto;text-rendering:auto;enable-background:accumulate" />
  </g>
</svg>
