<?xml version="1.0" encoding="UTF-8" standalone="no"?>
<svg
   xmlns:dc="http://purl.org/dc/elements/1.1/"
   xmlns:cc="http://creativecommons.org/ns#"
   xmlns:rdf="http://www.w3.org/1999/02/22-rdf-syntax-ns#"
   xmlns:svg="http://www.w3.org/2000/svg"
   xmlns="http://www.w3.org/2000/svg"
   xmlns:sodipodi="http://sodipodi.sourceforge.net/DTD/sodipodi-0.dtd"
   xmlns:inkscape="http://www.inkscape.org/namespaces/inkscape"
   viewBox="0 0 16 16"
   version="1.1"
   id="svg6"
   sodipodi:docname="images.svg"
   inkscape:version="0.92.4 (5da689c313, 2019-01-14)">
  <metadata
     id="metadata10">
    <rdf:RDF>
      <cc:Work
         rdf:about="">
        <dc:format>image/svg+xml</dc:format>
        <dc:type
           rdf:resource="http://purl.org/dc/dcmitype/StillImage" />
      </cc:Work>
    </rdf:RDF>
  </metadata>
  <sodipodi:namedview
     pagecolor="#ffffff"
     bordercolor="#666666"
     borderopacity="1"
     objecttolerance="10"
     gridtolerance="10"
     guidetolerance="10"
     inkscape:pageopacity="0"
     inkscape:pageshadow="2"
     inkscape:window-width="1920"
     inkscape:window-height="1016"
     id="namedview8"
     showgrid="false"
     inkscape:zoom="14.75"
     inkscape:cx="26.381336"
     inkscape:cy="16.884324"
     inkscape:window-x="1912"
     inkscape:window-y="-8"
     inkscape:window-maximized="1"
     inkscape:current-layer="svg6" />
  <defs
     id="defs3051">
    <style
       type="text/css"
       id="current-color-scheme">
      .ColorScheme-Text {
        color:#4d4d4d;
      }
      </style>
  </defs>
  <g
     transform="matrix(0.51637869,0,0,0.51637869,3.8689705,5.075783)"
     id="g15">
    <path
       inkscape:connector-curvature="0"
       id="path14"
       d="m 7.99985,2 a 3,3 0 0 0 -3,3 3,3 0 0 0 3,3 3,3 0 0 0 3,-3 3,3 0 0 0 -3,-3"
       style="color:#4d4d4d;fill:#3daee9;fill-opacity:1;stroke:none" />
    <path
       inkscape:connector-curvature="0"
       id="path12"
       d="m 7.99985,3 a 2,2 0 0 1 2,2 2,2 0 0 1 -2,2 2,2 0 0 1 -2,-2 2,2 0 0 1 2,-2"
       style="color:#4d4d4d;fill:#3daee9;fill-opacity:1;stroke:none" />
    <path
       inkscape:connector-curvature="0"
       id="path10"
       d="m 7.99985,9 a 5,4.5 0 0 0 -5,4.5 5,4.5 0 0 0 0.0332,0.5 h 9.93 a 5,4.5 0 0 0 0.0371,-0.5 5,4.5 0 0 0 -5,-4.5"
       style="color:#4d4d4d;fill:#3daee9;fill-opacity:1;stroke:none" />
    <path
       inkscape:connector-curvature="0"
       id="path4"
       d="m 8.0002,10 a 4,3.5 0 0 1 3.95508,3 h -7.91 a 4,3.5 0 0 1 3.95508,-3"
       style="color:#4d4d4d;fill:#3daee9;fill-opacity:1;stroke:none" />
  </g>
  <path
     style="color:#4d4d4d;fill:currentColor;fill-opacity:1;stroke:none"
     d="M 2,2 V 5.0000001 14 H 3 14 V 13 2 H 3 Z M 3,5.0000001 H 13 V 13 H 3 Z"
     id="path48"
     inkscape:connector-curvature="0" />
</svg>
