<?xml version="1.0" encoding="UTF-8" standalone="no"?>
<svg
   xmlns:dc="http://purl.org/dc/elements/1.1/"
   xmlns:cc="http://creativecommons.org/ns#"
   xmlns:rdf="http://www.w3.org/1999/02/22-rdf-syntax-ns#"
   xmlns:svg="http://www.w3.org/2000/svg"
   xmlns="http://www.w3.org/2000/svg"
   xmlns:sodipodi="http://sodipodi.sourceforge.net/DTD/sodipodi-0.dtd"
   xmlns:inkscape="http://www.inkscape.org/namespaces/inkscape"
   viewBox="0 0 16 16"
   version="1.1"
   id="svg6"
   sodipodi:docname="javascript.svg"
   inkscape:version="0.92.4 (5da689c313, 2019-01-14)">
  <metadata
     id="metadata10">
    <rdf:RDF>
      <cc:Work
         rdf:about="">
        <dc:format>image/svg+xml</dc:format>
        <dc:type
           rdf:resource="http://purl.org/dc/dcmitype/StillImage" />
      </cc:Work>
    </rdf:RDF>
  </metadata>
  <sodipodi:namedview
     pagecolor="#ffffff"
     bordercolor="#666666"
     borderopacity="1"
     objecttolerance="10"
     gridtolerance="10"
     guidetolerance="10"
     inkscape:pageopacity="0"
     inkscape:pageshadow="2"
     inkscape:window-width="1920"
     inkscape:window-height="1016"
     id="namedview8"
     showgrid="false"
     inkscape:zoom="41.7193"
     inkscape:cx="4.3941947"
     inkscape:cy="9.1227126"
     inkscape:window-x="1912"
     inkscape:window-y="-8"
     inkscape:window-maximized="1"
     inkscape:current-layer="text12" />
  <defs
     id="defs3051">
    <style
       type="text/css"
       id="current-color-scheme">
      .ColorScheme-Text {
        color:#4d4d4d;
      }
      </style>
  </defs>
  <g
     id="text12"
     style="font-style:normal;font-variant:normal;font-weight:bold;font-stretch:normal;font-size:12px;line-height:1.25;font-family:'Source Sans Pro';-inkscape-font-specification:'Source Sans Pro Bold';letter-spacing:0px;word-spacing:0px;fill:#4d4d4d;fill-opacity:1;stroke:#4d4d4d;stroke-width:0.3;stroke-miterlimit:4;stroke-dasharray:none"
     aria-label="JS">
    <path
       inkscape:connector-curvature="0"
       id="path14"
       d="m 4.4483928,12.056 q -0.9,0 -1.512,-0.348 -0.6,-0.348 -1.008,-1.068 l 1.2,-0.8880003 q 0.216,0.3960003 0.504,0.5880003 0.288,0.192 0.588,0.192 0.48,0 0.72,-0.288 0.252,-0.3000003 0.252,-1.0800003 v -5.076 h 1.764 v 5.22 q 0,0.564 -0.156,1.0680003 -0.144,0.504 -0.456,0.876 -0.3,0.372 -0.78,0.588 -0.468,0.216 -1.116,0.216 z"
       style="stroke:none;stroke-width:0.3;stroke-miterlimit:4;stroke-dasharray:none" />
    <path
       inkscape:connector-curvature="0"
       id="path16"
       d="m 11.165581,12.056 q -0.768,0 -1.5360007,-0.276 -0.756,-0.288 -1.356,-0.852 l 1.008,-1.2120003 q 0.42,0.3600003 0.9240007,0.5880003 0.516,0.228 1.008,0.228 0.552,0 0.816,-0.204 0.276,-0.204 0.276,-0.5520003 0,-0.18 -0.084,-0.312 -0.072,-0.132 -0.228,-0.228 -0.144,-0.108 -0.36,-0.192 -0.204,-0.096 -0.456,-0.204 l -1.02,-0.432 q -0.3000007,-0.12 -0.5880007,-0.312 -0.276,-0.192 -0.504,-0.444 -0.216,-0.264 -0.348,-0.6 -0.132,-0.348 -0.132,-0.78 0,-0.48 0.204,-0.9 0.204,-0.432 0.576,-0.744 0.372,-0.324 0.8760007,-0.504 0.516,-0.18 1.128,-0.18 0.684,0 1.344,0.264 0.672,0.264 1.176,0.768 l -0.9,1.116 q -0.384,-0.3 -0.768,-0.456 -0.384,-0.168 -0.852,-0.168 -0.456,0 -0.732,0.192 -0.264,0.18 -0.264,0.516 0,0.18 0.084,0.312 0.096,0.12 0.252,0.228 0.168,0.096 0.384,0.192 0.216,0.084 0.468,0.192 l 1.008,0.408 q 0.72,0.288 1.128,0.792 0.42,0.504 0.42,1.332 0,0.4920003 -0.204,0.9360003 -0.192,0.432 -0.576,0.768 -0.372,0.324 -0.924,0.528 -0.552,0.192 -1.248,0.192 z"
       style="stroke:none;stroke-width:0.3;stroke-miterlimit:4;stroke-dasharray:none" />
  </g>
</svg>
