<?xml version="1.0" encoding="UTF-8" standalone="no"?>
<svg
   xmlns:dc="http://purl.org/dc/elements/1.1/"
   xmlns:cc="http://creativecommons.org/ns#"
   xmlns:rdf="http://www.w3.org/1999/02/22-rdf-syntax-ns#"
   xmlns:svg="http://www.w3.org/2000/svg"
   xmlns="http://www.w3.org/2000/svg"
   xmlns:sodipodi="http://sodipodi.sourceforge.net/DTD/sodipodi-0.dtd"
   xmlns:inkscape="http://www.inkscape.org/namespaces/inkscape"
   viewBox="0 0 16 16"
   version="1.1"
   id="svg6"
   sodipodi:docname="process-restore.svg"
   width="16"
   height="16"
   inkscape:version="0.92.4 (5da689c313, 2019-01-14)">
  <metadata
     id="metadata10">
    <rdf:RDF>
      <cc:Work
         rdf:about="">
        <dc:format>image/svg+xml</dc:format>
        <dc:type
           rdf:resource="http://purl.org/dc/dcmitype/StillImage" />
        <dc:title />
      </cc:Work>
    </rdf:RDF>
  </metadata>
  <sodipodi:namedview
     pagecolor="#ffffff"
     bordercolor="#666666"
     borderopacity="1"
     objecttolerance="10"
     gridtolerance="10"
     guidetolerance="10"
     inkscape:pageopacity="0"
     inkscape:pageshadow="2"
     inkscape:window-width="1920"
     inkscape:window-height="1016"
     id="namedview8"
     showgrid="false"
     inkscape:zoom="45.254834"
     inkscape:cx="4.5260965"
     inkscape:cy="9.4864778"
     inkscape:window-x="1912"
     inkscape:window-y="-8"
     inkscape:window-maximized="1"
     inkscape:current-layer="svg6" />
  <defs
     id="defs3051">
    <style
       type="text/css"
       id="current-color-scheme">
      .ColorScheme-Text {
        color:#4d4d4d;
      }
      </style>
    <inkscape:path-effect
       effect="bspline"
       id="path-effect851"
       is_visible="true"
       weight="33.333333"
       steps="2"
       helper_size="0"
       apply_no_weight="true"
       apply_with_weight="true"
       only_selected="false" />
  </defs>
  <g
     id="g14">
    <path
       sodipodi:nodetypes="ccccccccccccccccccccccc"
       id="path4-6"
       d="M 7.9999997,2 C 6.7549783,2.001812 5.5413543,2.390881 4.5273435,3.113281 l 0.71875,0.71875 C 6.0627291,3.290888 7.0203429,3.001566 7.9999997,3 10.761424,3 13,5.238576 13,7.9999998 12.9984,8.9796566 12.709112,9.9372705 12.167969,10.753906 l 0.716797,0.716797 C 13.607476,10.457467 13.997215,9.2445665 14,7.9999998 14.000008,4.686294 11.313714,2 7.9999997,2 Z M 3.115234,4.529297 C 2.3925237,5.542533 2.0027848,6.7554332 2,7.9999998 1.9999917,11.313706 4.6862855,14 7.9999997,14 9.2450212,13.99819 10.458645,13.609119 11.472656,12.886719 l -0.71875,-0.71875 C 9.9372704,12.709112 8.9796565,12.998434 7.9999997,13 5.238576,13 2.9999999,10.761423 3,7.9999998 3.0015661,7.0203431 3.2908876,6.0627294 3.8320309,5.246094 Z M 11,8.9999998 H 4.9999997 11 v -2 z"
       class="ColorScheme-NegativeText"
       style="fill:#4d4d4d;fill-opacity:1;stroke:none"
       inkscape:connector-curvature="0" />
    <path
       id="path12"
       d="m 8.0000012,4.8523968 c -0.581686,0 -1.122682,0.1675225 -1.590195,0.4426317 l 0.295088,0.2950878 0.09836,0.098363 1.016414,1.0164135 L 8.1967243,6.3278362 7.3442492,5.4753603 c 0.102475,-0.026802 0.204522,-0.051262 0.311481,-0.065575 0.02749,-0.00409 0.05418,-0.013212 0.08197,-0.016394 0.08818,-0.00895 0.17176,-0.016394 0.2623,-0.016394 1.448645,0 2.6230038,1.1743581 2.6230038,2.6230027 0,0.1274905 -0.01492,0.2546979 -0.03279,0.3770566 -0.01046,0.071477 -0.01668,0.1436373 -0.03279,0.2131191 -0.03512,0.1503405 -0.08742,0.2872838 -0.147544,0.4262379 -0.007,0.016095 -0.0091,0.03326 -0.01639,0.049181 -0.02149,0.048085 -0.05679,0.085685 -0.08197,0.1311502 -0.0024,0.0042 0.0023,0.012092 0,0.016394 l 0.393451,0.3770567 C 10.98008,9.1226825 11.147602,8.5816866 11.147602,8 c 0,-1.7383736 -1.4092308,-3.1476032 -3.1476038,-3.1476032 z"
       style="color:#4d4d4d;fill:#3daee9;fill-opacity:1;stroke:#3daee9;stroke-width:0.2;stroke-miterlimit:4;stroke-dasharray:none" />
    <path
       id="path4-1"
       d="M 5.2950302,6.4098046 C 5.0199202,6.8773178 4.8523982,7.4183135 4.8523982,8 c 0,1.7383736 1.409231,3.147603 3.147603,3.147603 0.5816861,0 1.1226831,-0.167523 1.5901961,-0.442632 l -0.295088,-0.295088 -0.09836,-0.09836 -1.016413,-1.000019 -0.360663,0.3606629 0.836082,0.8524751 c -0.102476,0.0268 -0.204522,0.05126 -0.311482,0.06558 -0.02749,0.0041 -0.05418,0.01321 -0.08197,0.01639 -0.08818,0.0089 -0.17176,0.01639 -0.262301,0.01639 -0.09054,0 -0.174122,-0.0074 -0.2623,-0.01639 -0.08818,-0.009 -0.176925,-0.01532 -0.2623,-0.03279 -1.195258,-0.244585 -2.098402,-1.3062567 -2.098402,-2.5738207 0,-0.1302387 0.01446,-0.2519059 0.03279,-0.3770566 0.01047,-0.071476 0.01668,-0.1436373 0.03279,-0.213119 0.03512,-0.1503408 0.08742,-0.2872838 0.147543,-0.4262379 0.0068,-0.016115 0.0093,-0.033233 0.01639,-0.049181 0.02131,-0.046617 0.05698,-0.08642 0.08197,-0.1311502 v -0.016396 z"
       style="color:#4d4d4d;fill:#3daee9;fill-opacity:1;stroke:#3daee9;stroke-width:0.2;stroke-miterlimit:4;stroke-dasharray:none" />
  </g>
</svg>
