<?xml version="1.0" encoding="UTF-8" standalone="no"?>
<svg
   xmlns:dc="http://purl.org/dc/elements/1.1/"
   xmlns:cc="http://creativecommons.org/ns#"
   xmlns:rdf="http://www.w3.org/1999/02/22-rdf-syntax-ns#"
   xmlns:svg="http://www.w3.org/2000/svg"
   xmlns="http://www.w3.org/2000/svg"
   xmlns:sodipodi="http://sodipodi.sourceforge.net/DTD/sodipodi-0.dtd"
   xmlns:inkscape="http://www.inkscape.org/namespaces/inkscape"
   viewBox="0 0 16 16"
   version="1.1"
   id="svg6"
   sodipodi:docname="tab-close-right.svg"
   inkscape:version="0.92.4 (5da689c313, 2019-01-14)">
  <metadata
     id="metadata10">
    <rdf:RDF>
      <cc:Work
         rdf:about="">
        <dc:format>image/svg+xml</dc:format>
        <dc:type
           rdf:resource="http://purl.org/dc/dcmitype/StillImage" />
      </cc:Work>
    </rdf:RDF>
  </metadata>
  <sodipodi:namedview
     pagecolor="#ffffff"
     bordercolor="#666666"
     borderopacity="1"
     objecttolerance="10"
     gridtolerance="10"
     guidetolerance="10"
     inkscape:pageopacity="0"
     inkscape:pageshadow="2"
     inkscape:window-width="1920"
     inkscape:window-height="1016"
     id="namedview8"
     showgrid="false"
     inkscape:zoom="41.7193"
     inkscape:cx="1.7110922"
     inkscape:cy="6.6410033"
     inkscape:window-x="1912"
     inkscape:window-y="-8"
     inkscape:window-maximized="1"
     inkscape:current-layer="svg6" />
  <defs
     id="defs3051">
    <style
       type="text/css"
       id="current-color-scheme">
      .ColorScheme-Text {
        color:#4d4d4d;
      }
      .ColorScheme-NegativeText {
        color:#da4453;
      }
      </style>
  </defs>
  <g
     id="g29"
     transform="matrix(-1,0,0,1,12.63875,1e-7)">
    <g
       transform="matrix(0.75501158,0,0,0.75501158,0.96516392,1.9599074)"
       id="g21">
      <path
         id="path18"
         d="m 7.999999,11.962529 c 0.845339,0 1.637846,-0.264169 2.27185,-0.739672 L 9.796346,10.747353 C 9.268009,11.117189 8.634003,11.275691 7.999999,11.275691 6.150818,11.275691 4.671475,9.84918 4.671475,8 4.724315,7.365995 4.88281,6.73199 5.252646,6.203653 L 4.777141,5.72815 C 4.301638,6.362154 4.037471,7.15466 4.037471,8 c 0,2.166182 1.796344,3.962529 3.962528,3.962529 z M 11.222855,10.27185 C 11.698359,9.637845 11.962529,8.84534 11.962529,8 c 0,-2.166184 -1.796347,-3.962529 -3.96253,-3.962529 -0.845339,0 -1.637844,0.264167 -2.271851,0.739672 L 6.203653,5.252646 C 6.73199,4.882811 7.365995,4.724309 7.999999,4.671476 c 1.849181,0 3.328524,1.479344 3.27569,3.328524 0,0.634005 -0.158505,1.268009 -0.528337,1.796347 z M 5.992316,7.365995 H 10.00768 5.992316 v 1.320843 z"
         style="fill:#4d4d4d;fill-opacity:1;fill-rule:nonzero;stroke:none;stroke-width:0.66042644"
         inkscape:connector-curvature="0" />
      <g
         transform="matrix(0.65795706,0.65455718,-0.65455718,0.65795706,7.9609014,-7.0939138)"
         id="g12">
        <path
           id="path19-7"
           d="m 9,12 v -1 h 5 v 1 z"
           style="color:#4d4d4d;fill:#3daee9;fill-opacity:1;stroke:none;stroke-width:1.11803401"
           inkscape:connector-curvature="0" />
        <path
           id="path19-7-9"
           d="M 12,14 H 11 V 9 h 1 z"
           style="color:#4d4d4d;fill:#3daee9;fill-opacity:1;stroke:none;stroke-width:1.11803401"
           inkscape:connector-curvature="0" />
      </g>
    </g>
    <path
       id="path4"
       class="ColorScheme-Text"
       d="m -0.71951227,7.9999998 6.25099997,-6 0.749,0.719 -4.298,4.125 -1.23699997,1.156 1.23699997,1.156 4.298,4.1250002 -0.749,0.719 -4.298,-4.1250002 z"
       style="color:#4d4d4d;fill:currentColor;fill-opacity:1;stroke:none"
       inkscape:connector-curvature="0" />
  </g>
</svg>
