<?xml version="1.0" encoding="UTF-8" standalone="no"?>
<svg
   xmlns:dc="http://purl.org/dc/elements/1.1/"
   xmlns:cc="http://creativecommons.org/ns#"
   xmlns:rdf="http://www.w3.org/1999/02/22-rdf-syntax-ns#"
   xmlns:svg="http://www.w3.org/2000/svg"
   xmlns="http://www.w3.org/2000/svg"
   xmlns:sodipodi="http://sodipodi.sourceforge.net/DTD/sodipodi-0.dtd"
   xmlns:inkscape="http://www.inkscape.org/namespaces/inkscape"
   viewBox="0 0 16 16"
   version="1.1"
   id="svg6"
   sodipodi:docname="undefined.svg"
   inkscape:version="0.92.4 (5da689c313, 2019-01-14)">
  <metadata
     id="metadata10">
    <rdf:RDF>
      <cc:Work
         rdf:about="">
        <dc:format>image/svg+xml</dc:format>
        <dc:type
           rdf:resource="http://purl.org/dc/dcmitype/StillImage" />
      </cc:Work>
    </rdf:RDF>
  </metadata>
  <sodipodi:namedview
     pagecolor="#ffffff"
     bordercolor="#666666"
     borderopacity="1"
     objecttolerance="10"
     gridtolerance="10"
     guidetolerance="10"
     inkscape:pageopacity="0"
     inkscape:pageshadow="2"
     inkscape:window-width="1920"
     inkscape:window-height="1017"
     id="namedview8"
     showgrid="false"
     inkscape:zoom="14.75"
     inkscape:cx="34.754217"
     inkscape:cy="16.884324"
     inkscape:window-x="-8"
     inkscape:window-y="-8"
     inkscape:window-maximized="1"
     inkscape:current-layer="svg6" />
  <defs
     id="defs3051">
    <style
       type="text/css"
       id="current-color-scheme">
      .ColorScheme-Text {
        color:#4d4d4d;
      }
      </style>
  </defs>
  <g
     aria-label="?"
     style="font-style:normal;font-variant:normal;font-weight:bold;font-stretch:normal;font-size:16.41370583px;line-height:1.25;font-family:Wingdings;-inkscape-font-specification:'Wingdings Bold';letter-spacing:0px;word-spacing:0px;fill:#d62100;fill-opacity:1;stroke:none;stroke-width:0.08548806"
     id="text819">
    <path
       d="m 12.251695,12.391949 -1.258277,-0.480871 q -0.488885,0.24845 -1.3143792,0.480871 -0.8014505,-0.128232 -1.8032636,-0.416755 -0.3526382,0.416755 -0.777407,0.416755 -0.3526382,0 -0.6411604,-0.240435 -0.3125656,0.240435 -0.6171168,0.240435 -0.3125657,0 -0.5610154,-0.192348 Q 5.030626,12.007252 4.8382779,11.630571 4.1810885,11.534397 3.9005808,11.125657 l -1.0098276,0.625131 -1.763191,0.641161 1.3544513,-1.322394 1.3304078,-0.817479 Q 3.9967549,9.8834087 4.5176977,9.7471621 4.173074,9.7311331 3.7483052,9.5628285 L 4.5978427,7.030245 6.1446422,5.3071265 9.7191113,5.8040258 10.151895,6.3009251 14.439655,3.6080514 q 0.432783,0.1522756 0.432783,0.5449864 0,0.056102 -0.008,0.1442611 l -4.207615,2.620743 0.360653,0.5049138 q 0.809465,1.1220307 1.057915,1.3624658 0.256464,0.2324207 0.865566,0.4407978 0.02404,0.3766817 0.02404,0.5610153 0,1.5227564 -0.713291,2.6047144 z M 12.075376,11.87902 q 0.472855,-1.0499 0.472855,-2.1078144 V 9.4987125 Q 11.722737,9.1621033 10.985403,8.0641161 10.793055,7.7755939 10.728939,7.6874344 L 10.30417,7.1344336 8.5169356,8.2644787 8.5009066,8.9216681 8.5089211,9.602901 q -1.2342338,0.1683046 -2.412366,0.609102 -0.4407977,-0.08816 -0.7613779,-0.08816 -1.1460742,0 -1.1460742,0.56903 0,0.585059 1.0338711,0.585059 0.3686672,0 0.9537261,-0.136247 2.524569,0.649175 3.5183676,0.777407 0.2484496,-0.08014 0.3686672,-0.120218 0.657189,-0.208377 0.929683,-0.312565 z M 9.8072708,6.5012877 9.5347777,6.172693 6.2969177,5.7479242 4.9584954,7.2306076 4.285277,9.3143789 q 0.1442611,0.024044 0.2324207,0.024044 0.7052764,0 1.1621032,-1.4025384 L 5.9442795,7.7435359 Q 6.4411788,7.3828832 6.9220491,6.9180419 7.4349774,7.2466366 8.0841523,7.5832458 Z M 7.7074706,7.8316955 Q 7.571224,7.7595649 7.4990935,7.7275069 7.2105713,7.5912603 7.0021942,7.4469992 6.6255124,7.8477245 6.0164101,8.2083772 5.8641345,8.713291 5.5515688,9.1540888 Z M 8.1242248,8.4968994 6.0564826,9.7952491 Q 7.4109339,9.3704804 8.1081958,9.2502628 l 0.00801,-0.5449863 z m -1.7391475,3.0935986 -0.2003626,-0.0561 q -0.6010879,0.120217 -0.8896101,0.120217 0.1362466,0.16029 0.2644787,0.240435 0.1362466,0.08014 0.2644787,0.08014 0.3526382,0 0.5610153,-0.384696 z M 7.4269629,11.862991 6.665585,11.662629 q 0.056101,0.32058 0.4007252,0.32058 0.2083771,0 0.3606527,-0.120218 z"
       style="stroke-width:0.08548806"
       id="path821" />
  </g>
</svg>
