<?xml version="1.0" encoding="UTF-8" standalone="no"?>
<svg
   xmlns:dc="http://purl.org/dc/elements/1.1/"
   xmlns:cc="http://creativecommons.org/ns#"
   xmlns:rdf="http://www.w3.org/1999/02/22-rdf-syntax-ns#"
   xmlns:svg="http://www.w3.org/2000/svg"
   xmlns="http://www.w3.org/2000/svg"
   xmlns:sodipodi="http://sodipodi.sourceforge.net/DTD/sodipodi-0.dtd"
   xmlns:inkscape="http://www.inkscape.org/namespaces/inkscape"
   viewBox="0 0 16 16"
   version="1.1"
   id="svg6"
   sodipodi:docname="user-trash.svg"
   inkscape:version="0.92.4 (5da689c313, 2019-01-14)"><metadata
   id="metadata10">
  <rdf:RDF>
    <cc:Work
       rdf:about="">
      <dc:format>image/svg+xml</dc:format>
      <dc:type
         rdf:resource="http://purl.org/dc/dcmitype/StillImage" />
      <dc:title />
    </cc:Work>
  </rdf:RDF>
</metadata>
<sodipodi:namedview
   pagecolor="#ffffff"
   bordercolor="#666666"
   borderopacity="1"
   objecttolerance="10"
   gridtolerance="10"
   guidetolerance="10"
   inkscape:pageopacity="0"
   inkscape:pageshadow="2"
   inkscape:window-width="1920"
   inkscape:window-height="1017"
   id="namedview8"
   showgrid="false"
   inkscape:zoom="20.85965"
   inkscape:cx="6.6093113"
   inkscape:cy="2.5276914"
   inkscape:window-x="1912"
   inkscape:window-y="-8"
   inkscape:window-maximized="1"
   inkscape:current-layer="svg6" />
<defs
   id="defs3051">
  <style
     type="text/css"
     id="current-color-scheme">
      .ColorScheme-Text {
        color:#4d4d4d;
      }
      .ColorScheme-NegativeText {
        color:#da4453;
      }
      </style>
</defs>
<path
   style="fill:#4d4d4d;fill-opacity:1;stroke:none"
   class="ColorScheme-NegativeText"
   d="M 6 2 L 6 3 L 2 3 L 2 4 L 3 4 L 3 14 L 4 14 L 13 14 L 13 13 L 13 4 L 14 4 L 14 3 L 10 3 L 10 2 L 6 2 z M 7 3 L 9 3 L 9 4 L 10 4 L 12 4 L 12 13 L 4 13 L 4 4 L 7 4 L 7 3 z M 6 6 L 6 11 L 7 11 L 7 6 L 6 6 z M 9 6 L 9 11 L 10 11 L 10 6 L 9 6 z "
   id="path4" />


  /&gt;
<path
   inkscape:connector-curvature="0"
   style="color:#4d4d4d;fill:#3daee9;fill-opacity:1;stroke:none;stroke-width:1.11803401"
   d="M 6,11 V 6 h 1 v 5 z"
   id="path19-7" />
<path
   inkscape:connector-curvature="0"
   style="color:#4d4d4d;fill:#3daee9;fill-opacity:1;stroke:none;stroke-width:1.11803401"
   d="M 9,11 V 6.0000004 h 1 V 11 Z"
   id="path19-7-9" />
</svg>
