<?xml version="1.0" encoding="UTF-8" standalone="no"?>
<svg
   xmlns:dc="http://purl.org/dc/elements/1.1/"
   xmlns:cc="http://creativecommons.org/ns#"
   xmlns:rdf="http://www.w3.org/1999/02/22-rdf-syntax-ns#"
   xmlns:svg="http://www.w3.org/2000/svg"
   xmlns="http://www.w3.org/2000/svg"
   xmlns:sodipodi="http://sodipodi.sourceforge.net/DTD/sodipodi-0.dtd"
   xmlns:inkscape="http://www.inkscape.org/namespaces/inkscape"
   viewBox="0 0 16 16"
   version="1.1"
   id="svg6"
   sodipodi:docname="zoom-in.svg"
   inkscape:version="0.92.4 (5da689c313, 2019-01-14)">
  <metadata
     id="metadata10">
    <rdf:RDF>
      <cc:Work
         rdf:about="">
        <dc:format>image/svg+xml</dc:format>
        <dc:type
           rdf:resource="http://purl.org/dc/dcmitype/StillImage" />
      </cc:Work>
    </rdf:RDF>
  </metadata>
  <sodipodi:namedview
     pagecolor="#ffffff"
     bordercolor="#666666"
     borderopacity="1"
     objecttolerance="10"
     gridtolerance="10"
     guidetolerance="10"
     inkscape:pageopacity="0"
     inkscape:pageshadow="2"
     inkscape:window-width="1920"
     inkscape:window-height="1017"
     id="namedview8"
     showgrid="false"
     inkscape:zoom="14.75"
     inkscape:cx="16.230882"
     inkscape:cy="17.334132"
     inkscape:window-x="1912"
     inkscape:window-y="-8"
     inkscape:window-maximized="1"
     inkscape:current-layer="svg6" />
  <defs
     id="defs3051">
    <style
       type="text/css"
       id="current-color-scheme">
      .ColorScheme-Text {
        color:#4d4d4d;
      }
      </style>
  </defs>
  <path
     inkscape:connector-curvature="0"
     style="color:#4d4d4d;fill:currentColor;fill-opacity:1;stroke:none"
     d="m 6.5,1.9980472 c -2.493,0 -4.5,2.0099999 -4.5,4.4999999 0,2.4930001 2.01,4.4999999 4.5,4.4999999 1.063643,0 2.026341,-0.381199 2.794922,-0.994141 L 13.292969,14.001953 14,13.294922 10.001953,9.2968752 C 10.617604,8.5270952 11,7.5633851 11,6.4980472 c 0,-2.493 -2.01,-4.5 -4.5,-4.5 z m 0,1 c 1.939,0 3.5,1.5609999 3.5,3.4999999 0,1.9390001 -1.561,3.5000001 -3.5,3.5000001 -1.939,0 -3.5,-1.561 -3.5,-3.5000001 0,-1.939 1.561,-3.5 3.5,-3.4999999 z"
     class="ColorScheme-Text"
     id="path4" />
  <path
     style="color:#4d4d4d;fill:#3daee9;fill-opacity:1;stroke:none"
     d="m 5.9830509,4.0338979 v 2 H 3.9830508 v 1 h 2.0000001 v 2 h 1 v -2 h 2 v -1 h -2 v -2 z"
     id="path4-7"
     inkscape:connector-curvature="0" />
</svg>
