<?xml version="1.0" encoding="UTF-8" standalone="no"?>
<!-- Created with Inkscape (http://www.inkscape.org/) -->

<svg
   xmlns:dc="http://purl.org/dc/elements/1.1/"
   xmlns:cc="http://creativecommons.org/ns#"
   xmlns:rdf="http://www.w3.org/1999/02/22-rdf-syntax-ns#"
   xmlns:svg="http://www.w3.org/2000/svg"
   xmlns="http://www.w3.org/2000/svg"
   xmlns:sodipodi="http://sodipodi.sourceforge.net/DTD/sodipodi-0.dtd"
   xmlns:inkscape="http://www.inkscape.org/namespaces/inkscape"
   inkscape:export-ydpi="96"
   inkscape:export-xdpi="96"
   inkscape:export-filename="./bhawk.png"
   sodipodi:docname="bhawk-blue.svg"
   inkscape:version="0.92.4 (5da689c313, 2019-01-14)"
   id="svg8"
   version="1.1"
   viewBox="0 0 476.24998 476.25001"
   height="1800"
   width="1800">
  <sodipodi:namedview
     inkscape:window-maximized="1"
     inkscape:window-y="-8"
     inkscape:window-x="-8"
     inkscape:window-height="1017"
     inkscape:window-width="1920"
     units="px"
     showgrid="false"
     inkscape:current-layer="layer5"
     inkscape:document-units="px"
     inkscape:cy="278.62015"
     inkscape:cx="-2827.5814"
     inkscape:zoom="0.088388348"
     inkscape:pageshadow="2"
     inkscape:pageopacity="0.0"
     borderopacity="1.0"
     bordercolor="#666666"
     pagecolor="#ffffff"
     id="base"
     inkscape:snap-global="false" />
  <defs
     id="defs2" />
  <metadata
     id="metadata5">
    <rdf:RDF>
      <cc:Work
         rdf:about="">
        <dc:format>image/svg+xml</dc:format>
        <dc:type
           rdf:resource="http://purl.org/dc/dcmitype/StillImage" />
        <dc:title />
      </cc:Work>
    </rdf:RDF>
  </metadata>
  <g
     inkscape:label="Layer 3"
     id="layer3"
     inkscape:groupmode="layer"
     transform="translate(0,-31.750007)" />
  <g
     inkscape:label="Layer 4"
     id="layer4"
     inkscape:groupmode="layer"
     transform="translate(0,-31.750007)" />
  <g
     inkscape:label="Layer 5"
     id="layer5"
     inkscape:groupmode="layer"
     transform="translate(0,-31.750007)">
    <g
       aria-label="d"
       transform="matrix(0.9969238,0,0,1.0030857,-2.0447642e-6,2.2461737)"
       style="font-style:normal;font-weight:normal;font-size:461.71603394px;line-height:1.25;font-family:sans-serif;letter-spacing:0px;word-spacing:0px;fill:#898e8c;fill-opacity:1;stroke:#898e8c;stroke-width:37.32369995;stroke-miterlimit:4;stroke-dasharray:none;stroke-opacity:1"
       id="text62-6-2-7">
      <path
         inkscape:connector-curvature="0"
         d="m 376.60806,235.3336 q 0,78.15505 -38.68675,131.69126 -37.12365,51.38695 -99.06153,66.04102 Q 176.9219,418.41181 139.79825,367.02486 101.1115,313.48865 101.1115,235.3336 q 0,-28.5266 12.11403,-54.51315 9.37861,-20.32032 22.27419,-32.43435 28.72198,17.78027 56.8578,17.78027 28.13582,0 46.50226,-17.38949 18.36644,17.38949 46.50226,17.38949 28.13581,0 56.8578,-17.78027 12.89558,12.11403 22.27419,32.43435 12.11403,25.98655 12.11403,54.51315 z"
         style="font-style:normal;font-variant:normal;font-weight:bold;font-stretch:normal;font-size:400.15386963px;font-family:Webdings;-inkscape-font-specification:'Webdings Bold';fill:#898e8c;stroke:#898e8c;stroke-width:37.32369995;stroke-miterlimit:4;stroke-dasharray:none;stroke-opacity:1"
         id="path121" />
    </g>
    <g
       aria-label="d"
       transform="matrix(0.99432746,0,0,1.0057049,-2.0447642e-6,2.2461737)"
       style="font-style:normal;font-weight:normal;font-size:499.81829834px;line-height:1.25;font-family:sans-serif;letter-spacing:0px;word-spacing:0px;fill:#ffffff;fill-opacity:1;stroke:none;stroke-width:0.24990912"
       id="text62-6">
      <path
         inkscape:connector-curvature="0"
         d="m 388.5992,231.05754 q 0,84.60467 -41.87931,142.55886 -40.18721,55.62757 -107.23641,71.49094 Q 172.43429,429.24397 132.24707,373.6164 90.367766,315.66221 90.367766,231.05754 q 0,-30.8807 13.113724,-59.01175 10.15256,-21.99721 24.11233,-35.11093 31.09221,19.24756 61.54989,19.24756 30.45768,0 50.33977,-18.82454 19.8821,18.82454 50.33978,18.82454 30.45768,0 61.54989,-19.24756 13.95977,13.11372 24.11233,35.11093 13.11372,28.13105 13.11372,59.01175 z"
         style="font-style:normal;font-variant:normal;font-weight:bold;font-stretch:normal;font-size:433.1758728px;font-family:Webdings;-inkscape-font-specification:'Webdings Bold';fill:#ffffff;fill-opacity:1;stroke-width:0.24990912"
         id="path118" />
    </g>
    <g
       aria-label="M"
       transform="matrix(0.98674506,0,0,-1.013433,-2.0447642e-6,2.2461737)"
       style="font-style:normal;font-variant:normal;font-weight:bold;font-stretch:normal;font-size:38.65829086px;line-height:1.25;font-family:Webdings;-inkscape-font-specification:'Webdings Bold';letter-spacing:0px;word-spacing:0px;fill:#898e8c;fill-opacity:1;stroke:#898e8c;stroke-width:35.68915558;stroke-miterlimit:4;stroke-dasharray:none"
       id="text198-8-60-6">
      <path
         inkscape:connector-curvature="0"
         d="m 210.71924,-130.22998 q 0,0.48323 0.64431,1.77184 0.6443,1.12753 0.96645,1.44969 0,0 0.16108,0 0.32215,0.16107 0.64431,0.16107 0.16107,0 0.48322,-0.16107 0.32216,0 0.32216,0 0.6443,-0.32216 2.41614,-1.44969 1.93292,-1.28861 2.41614,-1.77184 0.96646,-0.96646 3.3826,-3.22152 2.57722,-2.25507 5.4766,-4.83229 2.89937,-2.57722 5.31551,-4.83229 2.57722,-2.25506 3.54368,-3.22152 h 8.05381 l 19.32915,16.10762 q 0.6443,0.48323 2.41614,1.77184 1.93292,1.12753 2.41615,1.44969 0,0 0.32215,0 0.32215,0.16107 0.48323,0.16107 0.32215,0 0.48323,-0.16107 0.32215,0 0.32215,0 0.32215,-0.32216 0.80538,-1.44969 0.6443,-1.28861 0.80538,-1.77184 10.30888,-0.32215 21.26206,-1.61076 10.95319,-1.28861 20.61776,-6.44305 3.54368,-1.93291 5.95982,-4.18798 2.41615,-2.41615 4.67121,-4.34906 2.25507,-2.09399 5.15444,-3.3826 2.89937,-1.44969 7.73166,-1.44969 0,-4.83228 2.09399,-8.21488 2.09399,-3.54368 4.83229,-6.60413 2.7383,-3.22153 5.47659,-6.28197 2.89937,-3.22153 4.34906,-7.40951 3.22152,-8.69812 4.34906,-17.39623 1.28861,-8.69812 2.09399,-18.04054 0.48323,0 1.61076,-0.64431 1.28861,-0.6443 1.61076,-0.96645 0,0 0,-0.16108 0.16108,-0.32215 0.16108,-0.48323 0,-1.44968 -1.28861,-3.3826 -1.12753,-2.09399 -2.57722,-3.86583 -1.44969,-1.93291 -2.7383,-3.22152 -1.28861,-1.44969 -1.61076,-1.77184 -1.44968,-1.61076 -3.86583,-4.02691 -2.41614,-2.57722 -4.83228,-4.83229 -2.25507,-2.25506 -4.02691,-3.86582 -1.61076,-1.77184 -1.77184,-1.77184 h -1.61076 q 1.28861,7.73166 1.61076,15.30224 0.32215,7.57058 0,15.30224 0.64431,1.28861 1.93292,1.77184 1.28861,0.32215 2.57722,0.80538 1.44968,0.32215 2.41614,0.96646 1.12753,0.6443 1.12753,2.09399 0,3.3826 -1.77184,7.24843 -1.61076,3.70475 -4.34905,7.08735 -2.7383,3.22153 -6.1209,5.4766 -3.3826,2.09399 -6.92628,2.09399 -3.3826,0 -6.7652,-1.12754 -3.22153,-1.28861 -6.44305,-3.22152 -3.06045,-1.93292 -5.95982,-4.18798 -2.89937,-2.25507 -5.15444,-4.51014 -1.12753,-0.96646 -4.02691,-3.70475 -2.73829,-2.7383 -5.79874,-5.79875 -3.06045,-3.06044 -5.79875,-5.79874 -2.73829,-2.89937 -3.70475,-4.02691 v -0.80538 -0.80538 q 0.16108,-0.48323 0.80538,-1.93291 0.64431,-1.44969 1.44969,-2.89938 0.80538,-1.61076 1.44968,-2.89937 0.80539,-1.44968 1.12754,-1.93291 0.80538,-1.61076 3.54368,-6.60413 2.89937,-4.99336 6.60412,-11.59749 3.86583,-6.60412 8.05381,-14.01363 4.34906,-7.57058 8.21489,-14.17471 3.86583,-6.60412 6.7652,-11.43641 2.89937,-4.99336 3.86583,-6.60413 0.32215,-0.48322 0.80538,-1.44968 0.64431,-0.96646 1.12754,-1.93292 0.48323,-1.12753 0.80538,-1.93291 0.48323,-0.80538 0.48323,-1.12753 0.32215,-0.48323 0.32215,-1.44969 0.16108,-0.96646 0.16108,-0.96646 h -14.98009 q -0.16108,0 -0.80539,-0.6443 -0.48322,-0.64431 -1.28861,-1.44969 -0.6443,-0.96646 -1.44968,-1.93291 -0.80538,-0.96646 -1.28861,-1.61077 0,0 -0.16108,-0.32215 0,-0.32215 0,-0.48323 0,-1.44968 1.77184,-2.41614 1.93292,-0.96646 4.51014,-1.77184 2.73829,-0.96646 5.95982,-2.09399 3.22152,-1.12753 5.79874,-3.06045 2.7383,-2.09399 4.51014,-5.15444 1.93291,-3.22152 1.93291,-8.05381 0,-8.21489 -4.51013,-11.75857 -4.51014,-3.70475 -12.2418,-3.70475 -4.83229,0 -7.89273,1.93292 -3.06045,1.77183 -4.83229,4.51013 -1.77184,2.57722 -2.7383,5.79875 -0.96645,3.22152 -1.77184,5.95982 -0.6443,2.57722 -1.61076,4.51013 -0.80538,1.77184 -2.41614,1.77184 -0.16108,0 -0.48323,0 -0.16108,-0.16108 -0.32215,-0.16108 -0.64431,-0.6443 -2.57722,-2.41614 -1.93292,-1.77184 -4.34906,-3.86583 -2.41614,-2.09399 -4.99336,-3.86583 -2.41615,-1.93291 -4.18799,-2.7383 0,0 -0.32215,0 -0.32215,-0.16107 -0.48323,-0.16107 -0.16107,0 -0.48323,0.16107 -0.32215,0 -0.32215,0 -0.48323,0.32216 -1.44968,1.28861 -0.80538,0.80538 -1.93292,1.93292 -0.96646,0.96646 -1.93291,1.93291 -0.80538,0.80538 -1.12754,1.28861 l 15.30225,16.91301 -8.8592,8.85919 h -77.31659 l -9.66457,-8.05381 14.49686,-16.10762 q 0,-0.16108 0.16107,-0.64431 0.16108,-0.6443 0.16108,-0.96646 0,-2.57722 -2.09399,-4.67121 -2.09399,-2.09399 -4.67121,-2.09399 -0.32215,0 -0.96646,0.16108 -0.48323,0.16107 -0.6443,0.16107 l -14.49687,12.8861 q 0,0 -0.32215,0.16108 -0.32215,0 -0.48323,0 -2.09399,0 -3.06044,-1.77184 -0.80539,-1.93291 -1.61077,-4.51013 -0.6443,-2.7383 -1.44968,-5.95982 -0.64431,-3.22153 -2.41615,-5.79875 -1.61076,-2.7383 -4.67121,-4.51013 -2.89937,-1.93292 -7.89273,-1.93292 -7.89274,0 -12.40287,3.70475 -4.51014,3.54368 -4.51014,11.75857 0,4.83229 1.77184,8.05381 1.93292,3.06045 4.51014,5.15444 2.73829,1.93292 5.95982,3.06045 3.22152,1.12753 5.79874,2.09399 2.7383,0.80538 4.51014,1.77184 1.93291,0.96646 1.93291,2.41614 0,0.16108 -0.16108,0.48323 0,0.32215 0,0.32215 -0.48322,0.64431 -1.28861,1.61077 -0.80538,0.96645 -1.61076,1.93291 -0.6443,0.80538 -1.28861,1.44969 -0.48323,0.6443 -0.6443,0.6443 h -14.98009 q 0,0 0,0.96646 0.16107,0.96646 0.48323,1.44969 3.86583,10.7921 9.66457,20.77883 5.95982,9.98673 12.24179,19.81238 6.44305,9.66457 12.56395,19.49022 6.1209,9.82565 10.63103,20.45668 v 0.80538 0.80538 q -0.96646,1.12754 -3.70475,4.02691 -2.7383,2.7383 -5.79875,5.79874 -3.06045,3.06045 -5.95982,5.79875 -2.73829,2.73829 -3.86583,3.70475 -2.25506,2.25507 -5.15444,4.51014 -2.89937,2.25506 -6.12089,4.18798 -3.06045,1.93291 -6.44305,3.22152 -3.22153,1.12754 -6.60413,1.12754 -3.3826,0 -6.92628,-1.93292 -3.3826,-2.09399 -6.12089,-5.15444 -2.7383,-3.22152 -4.51014,-6.92628 -1.77184,-3.86583 -1.77184,-7.24843 0,-2.57722 2.094,-3.3826 2.25506,-0.96645 4.51013,-1.28861 0.48323,-4.34906 0.80538,-7.73166 0.32215,-3.3826 0.48323,-6.28197 0.16108,-3.06045 0.16108,-5.95982 0.16107,-2.89937 0.16107,-6.60413 v -5.63766 l -14.49686,14.49686 q -0.32215,0.32215 -1.61076,1.77184 -1.28861,1.28861 -2.7383,3.22152 -1.44968,1.77184 -2.73829,3.86583 -1.12754,1.93292 -1.12754,3.3826 0,0.16108 0,0.48323 0.16108,0.16108 0.16108,0.16108 0.32215,0.32215 1.44969,0.96645 1.28861,0.64431 1.77183,0.64431 0.48323,8.37596 1.44969,15.78547 1.12753,7.24843 3.3826,14.01363 2.25507,6.60413 6.1209,12.8861 3.86583,6.1209 9.98672,12.08072 v 8.85919 q 5.95982,0 9.82565,2.09399 3.86583,2.09399 7.08736,4.83229 3.3826,2.73829 6.7652,5.63767 3.3826,2.73829 8.53704,4.34905 8.69812,2.7383 17.55731,3.70476 9.02027,0.96646 17.87946,1.12753 z m -29.1548,-30.60448 q 0,-2.57722 1.28861,-6.44305 1.44969,-3.86583 3.70476,-8.05381 2.25506,-4.34906 4.99336,-8.69812 2.7383,-4.34906 5.47659,-7.73166 2.89937,-3.54368 5.31552,-5.63767 2.57722,-2.25506 4.34906,-2.25506 0.16107,0 0.48323,0.16107 0.32215,0 0.32215,0 0.48323,0.32215 1.61076,1.61076 1.28861,1.12754 1.61076,1.61077 l 22.55067,38.65829 1.61077,3.22153 v 0.80538 0.80538 q -0.16108,0.32215 -0.80538,0.96646 -0.48323,0.48323 -0.80539,0.6443 -11.75856,2.41615 -25.77219,1.61076 -0.32215,3.54368 -1.12754,5.95982 -0.80538,2.25507 -4.34905,2.25507 -3.86583,0 -7.57059,-1.61076 -3.54367,-1.61076 -6.44305,-4.34906 -2.89937,-2.73829 -4.67121,-6.1209 -1.77184,-3.54367 -1.77184,-7.4095 z m 93.5853,11.27533 q -14.01364,0.80539 -25.7722,-1.61076 -0.32215,-0.16107 -0.96646,-0.6443 -0.48323,-0.64431 -0.6443,-0.96646 v -0.80538 -0.80538 l 1.61076,-3.22153 24.16143,-41.87982 h 1.61077 q 0.16107,0 1.77183,1.77184 1.77184,1.61076 4.02691,3.86583 2.41614,2.25507 4.83229,4.83229 2.41614,2.41614 3.86583,4.0269 4.51013,4.83229 8.05381,11.11426 3.54368,6.1209 3.54368,12.8861 0,3.70475 -1.93292,7.24843 -1.77184,3.54368 -4.67121,6.28198 -2.89937,2.73829 -6.60413,4.51013 -3.70475,1.61076 -7.4095,1.61076 -3.54368,0 -4.34906,-2.25507 -0.80538,-2.41614 -1.12753,-5.95982 z m -90.2027,-132.08251 1.61077,-1.61076 h 109.53184 l 1.61076,1.61076 q 0,0 -0.32215,0.80538 -0.32216,0.80539 -0.80539,1.93292 -0.48322,0.96646 -1.12753,2.09399 -0.48323,0.96646 -0.96646,1.61076 -3.86583,6.44305 -9.18134,15.6244 -5.31552,9.02027 -11.11426,18.84592 -5.63767,9.82565 -11.27534,19.49022 -5.63767,9.66457 -10.1478,17.39623 -4.34906,7.73166 -7.08736,12.56395 -2.73829,4.67121 -2.73829,4.67121 l -1.61076,1.61076 -1.61077,-1.61076 q -0.16107,-0.16108 -2.89937,-4.83229 -2.73829,-4.67121 -7.08735,-12.08071 -4.18798,-7.40951 -9.66458,-16.59086 -5.47659,-9.34242 -10.95318,-18.68484 -5.47659,-9.5035 -10.63103,-18.20161 -4.99336,-8.69812 -8.69812,-14.98009 -0.6443,-0.96646 -1.44968,-2.57722 -0.80539,-1.61077 -1.61077,-3.22153 -0.80538,-1.61076 -1.28861,-2.73829 -0.48323,-1.12754 -0.48323,-1.12754 z m 54.76592,53.15516 1.61077,1.61076 q 0.32215,-0.16107 0.80538,-0.6443 0.6443,-0.64431 0.80538,-0.96646 1.61076,-2.57722 3.86583,-6.60413 2.41614,-4.0269 4.99336,-8.37596 2.57722,-4.51013 4.83229,-9.02027 2.41614,-4.51013 4.0269,-8.21489 h -39.62475 z m -87.14224,-103.89417 q 0,-4.34906 1.93292,-7.40951 1.93291,-3.06045 7.08735,-3.06045 4.83229,0 7.73166,3.38261 2.89937,3.3826 2.89937,7.89273 0,9.82565 -9.82565,9.82565 -5.15444,0 -7.57058,-2.89937 -2.25507,-2.89937 -2.25507,-7.73166 z m 157.85471,0.80538 q 0,-4.51013 2.89937,-7.89273 2.89937,-3.38261 7.73166,-3.38261 5.47659,0 7.24843,3.22153 1.77184,3.06045 1.77184,7.24843 0,4.83229 -2.41614,7.73166 -2.25507,2.89937 -7.40951,2.89937 -9.82565,0 -9.82565,-9.82565 z"
         style="font-style:normal;font-variant:normal;font-weight:bold;font-stretch:normal;font-size:161.07623291px;font-family:Roundels;-inkscape-font-specification:'Roundels Bold';fill:#898e8c;stroke:#898e8c;stroke-width:35.68915558;stroke-miterlimit:4;stroke-dasharray:none"
         id="path115" />
    </g>
    <g
       aria-label="M"
       transform="matrix(0.99432746,0,0,-1.0057049,-2.0447642e-6,2.2461737)"
       style="font-style:normal;font-variant:normal;font-weight:bold;font-stretch:normal;font-size:40.52470779px;line-height:1.25;font-family:Webdings;-inkscape-font-specification:'Webdings Bold';letter-spacing:0px;word-spacing:0px;fill:#ffffff;fill-opacity:1;stroke:#ffffff;stroke-width:0.21106619;stroke-opacity:1"
       id="text198-8-60">
      <path
         inkscape:connector-curvature="0"
         d="m 207.40143,-121.53726 q 0,0.50656 0.67541,1.85738 0.67541,1.18197 1.01312,1.51968 0,0 0.16885,0 0.33771,0.16885 0.67541,0.16885 0.16886,0 0.50656,-0.16885 0.33771,0 0.33771,0 0.67541,-0.33771 2.53279,-1.51968 2.02624,-1.35082 2.5328,-1.85738 1.01311,-1.01312 3.54591,-3.37706 2.70165,-2.36394 5.741,-5.06559 3.03935,-2.70165 5.57215,-5.06559 2.70164,-2.36394 3.71476,-3.37706 h 8.44265 l 20.26235,16.8853 q 0.67541,0.50656 2.5328,1.85738 2.02623,1.18197 2.53279,1.51968 0,0 0.33771,0 0.3377,0.16885 0.50656,0.16885 0.3377,0 0.50656,-0.16885 0.3377,0 0.3377,0 0.33771,-0.33771 0.84427,-1.51968 0.67541,-1.35082 0.84426,-1.85738 10.80659,-0.33771 22.28859,-1.68853 11.482,-1.35082 21.61318,-6.75412 3.71476,-2.02623 6.24756,-4.39018 2.53279,-2.53279 4.89673,-4.55903 2.36394,-2.19508 5.4033,-3.54591 3.03935,-1.51967 8.10494,-1.51967 0,-5.06559 2.19509,-8.6115 2.19509,-3.71477 5.06559,-6.92298 2.8705,-3.37705 5.741,-6.58526 3.03935,-3.37706 4.55903,-7.76724 3.37705,-9.11806 4.55903,-18.23611 1.35082,-9.11806 2.19508,-18.91154 0.50656,0 1.68853,-0.67541 1.35083,-0.67541 1.68853,-1.01311 0,0 0,-0.16886 0.16886,-0.3377 0.16886,-0.50656 0,-1.51967 -1.35083,-3.54591 -1.18197,-2.19509 -2.70165,-4.05247 -1.51967,-2.02623 -2.8705,-3.37706 -1.35082,-1.51967 -1.68852,-1.85738 -1.51968,-1.68853 -4.05248,-4.22132 -2.53279,-2.70165 -5.06558,-5.06559 -2.36395,-2.36394 -4.22133,-4.05247 -1.68853,-1.85739 -1.85738,-1.85739 h -1.68853 q 1.35082,8.10495 1.68853,16.04103 0.33771,7.93609 0,16.04103 0.67541,1.35083 2.02623,1.85739 1.35083,0.3377 2.70165,0.84426 1.51968,0.33771 2.5328,1.01312 1.18197,0.67541 1.18197,2.19509 0,3.54591 -1.85739,7.59838 -1.68852,3.88362 -4.55903,7.42953 -2.8705,3.37706 -6.41641,5.741 -3.54591,2.19509 -7.26067,2.19509 -3.54592,0 -7.09183,-1.18197 -3.37706,-1.35083 -6.75412,-3.37706 -3.2082,-2.02624 -6.24756,-4.39018 -3.03935,-2.36394 -5.40329,-4.72788 -1.18197,-1.01312 -4.22132,-3.88362 -2.8705,-2.8705 -6.07871,-6.0787 -3.20821,-3.20821 -6.07871,-6.07871 -2.8705,-3.03935 -3.88361,-4.22132 v -0.84427 -0.84426 q 0.16885,-0.50656 0.84426,-2.02624 0.67541,-1.51968 1.51968,-3.03935 0.84426,-1.68853 1.51967,-3.03936 0.84427,-1.51967 1.18197,-2.02623 0.84427,-1.68853 3.71477,-6.92297 3.03935,-5.23444 6.92297,-12.15741 4.05247,-6.92298 8.44265,-14.69021 4.55903,-7.93609 8.6115,-14.85906 4.05247,-6.92297 7.09182,-11.98856 3.03936,-5.23444 4.05247,-6.92297 0.33771,-0.50656 0.84427,-1.51968 0.67541,-1.01312 1.18197,-2.02623 0.50656,-1.18197 0.84426,-2.02624 0.50656,-0.84426 0.50656,-1.18197 0.33771,-0.50656 0.33771,-1.51968 0.16885,-1.01311 0.16885,-1.01311 h -15.70332 q -0.16886,0 -0.84427,-0.67542 -0.50656,-0.67541 -1.35082,-1.51967 -0.67541,-1.01312 -1.51968,-2.02624 -0.84426,-1.01311 -1.35082,-1.68853 0,0 -0.16885,-0.3377 0,-0.33771 0,-0.50656 0,-1.51968 1.85738,-2.5328 2.02623,-1.01311 4.72788,-1.85738 2.8705,-1.01312 6.24756,-2.19509 3.37706,-1.18197 6.07871,-3.2082 2.8705,-2.19509 4.72788,-5.4033 2.02623,-3.37706 2.02623,-8.44264 0,-8.61151 -4.72788,-12.32627 -4.72788,-3.88362 -12.83282,-3.88362 -5.06559,0 -8.2738,2.02624 -3.2082,1.85738 -5.06559,4.72788 -1.85738,2.70165 -2.8705,6.07871 -1.01311,3.37706 -1.85738,6.24756 -0.67541,2.70164 -1.68853,4.72788 -0.84426,1.85738 -2.53279,1.85738 -0.16886,0 -0.50656,0 -0.16885,-0.16885 -0.33771,-0.16885 -0.67541,-0.67541 -2.70164,-2.5328 -2.02624,-1.85738 -4.55903,-4.05247 -2.5328,-2.19509 -5.23445,-4.05247 -2.53279,-2.02623 -4.39017,-2.8705 0,0 -0.33771,0 -0.3377,-0.16885 -0.50656,-0.16885 -0.16885,0 -0.50656,0.16885 -0.3377,0 -0.3377,0 -0.50656,0.33771 -1.51968,1.35083 -0.84426,0.84426 -2.02623,2.02623 -1.01312,1.01312 -2.02624,2.02624 -0.84426,0.84426 -1.18197,1.35082 l 16.04103,17.72956 -9.28691,9.28691 h -81.04942 l -10.13118,-8.44265 15.19677,-16.88529 q 0,-0.16885 0.16885,-0.67541 0.16886,-0.67541 0.16886,-1.01312 0,-2.70165 -2.19509,-4.89674 -2.19509,-2.19508 -4.89674,-2.19508 -0.3377,0 -1.01312,0.16885 -0.50655,0.16885 -0.67541,0.16885 l -15.19676,13.50824 q 0,0 -0.33771,0.16885 -0.3377,0 -0.50656,0 -2.19509,0 -3.2082,-1.85738 -0.84427,-2.02624 -1.68853,-4.72788 -0.67542,-2.8705 -1.51968,-6.24756 -0.67541,-3.37706 -2.53279,-6.07871 -1.68853,-2.8705 -4.89674,-4.72788 -3.03935,-2.02624 -8.27379,-2.02624 -8.2738,0 -13.00168,3.88362 -4.72788,3.71476 -4.72788,12.32627 0,5.06558 1.85738,8.44264 2.02623,3.20821 4.72788,5.4033 2.8705,2.02623 6.24756,3.2082 3.37706,1.18197 6.07871,2.19509 2.8705,0.84427 4.72788,1.85738 2.02623,1.01312 2.02623,2.5328 0,0.16885 -0.16885,0.50656 0,0.3377 0,0.3377 -0.50656,0.67542 -1.35082,1.68853 -0.84427,1.01312 -1.68853,2.02624 -0.67541,0.84426 -1.35083,1.51967 -0.50655,0.67542 -0.67541,0.67542 h -15.70332 q 0,0 0,1.01311 0.16885,1.01312 0.50656,1.51968 4.05247,11.31315 10.13117,21.78203 6.24756,10.46888 12.83283,20.76891 6.75412,10.13118 13.17053,20.43121 6.41641,10.30003 11.14429,21.44433 v 0.84426 0.84427 q -1.01311,1.18197 -3.88361,4.22132 -2.8705,2.8705 -6.07871,6.07871 -3.20821,3.2082 -6.24756,6.0787 -2.8705,2.8705 -4.05247,3.88362 -2.36394,2.36394 -5.4033,4.72788 -3.03935,2.36394 -6.41641,4.39018 -3.2082,2.02623 -6.75412,3.37706 -3.37705,1.18197 -6.92297,1.18197 -3.54591,0 -7.26067,-2.02624 -3.54592,-2.19508 -6.41642,-5.40329 -2.8705,-3.37706 -4.72788,-7.26068 -1.85738,-4.05247 -1.85738,-7.59838 0,-2.70165 2.19509,-3.54591 2.36394,-1.01312 4.72788,-1.35083 0.50656,-4.55903 0.84427,-8.10494 0.3377,-3.54591 0.50655,-6.58526 0.16886,-3.20821 0.16886,-6.24756 0.16885,-3.03936 0.16885,-6.92297 v -5.90986 l -15.19677,15.19677 q -0.3377,0.33771 -1.68852,1.85738 -1.35083,1.35083 -2.87051,3.37706 -1.51967,1.85738 -2.8705,4.05247 -1.18197,2.02624 -1.18197,3.54591 0,0.16886 0,0.50656 0.16886,0.16886 0.16886,0.16886 0.3377,0.3377 1.51967,1.01311 1.35083,0.67541 1.85739,0.67541 0.50655,8.78036 1.51967,16.54759 1.18197,7.59839 3.54591,14.69021 2.36395,6.92297 6.41642,13.50824 4.05247,6.41641 10.46888,12.66397 v 9.28691 q 6.24756,0 10.30003,2.19509 4.05247,2.19509 7.42953,5.06559 3.54591,2.8705 7.09182,5.90985 3.54592,2.8705 8.94921,4.55903 9.11806,2.8705 18.40497,3.88362 9.45577,1.01312 18.74268,1.18197 z m -30.56239,-32.08206 q 0,-2.70165 1.35083,-6.75412 1.51968,-4.05247 3.88362,-8.44265 2.36394,-4.55903 5.23444,-9.11806 2.8705,-4.55903 5.741,-8.10494 3.03935,-3.71476 5.57215,-5.90985 2.70164,-2.36394 4.55903,-2.36394 0.16885,0 0.50655,0.16885 0.33771,0 0.33771,0 0.50656,0.33771 1.68853,1.68853 1.35082,1.18197 1.68853,1.68853 l 23.63941,40.52471 1.68853,3.37706 v 0.84426 0.84427 q -0.16885,0.3377 -0.84426,1.01311 -0.50656,0.50656 -0.84427,0.67542 -12.32626,2.53279 -27.01647,1.68852 -0.33771,3.71477 -1.18197,6.24756 -0.84427,2.36395 -4.55903,2.36395 -4.05247,0 -7.93609,-1.68853 -3.71476,-1.68853 -6.75412,-4.55903 -3.03935,-2.8705 -4.89673,-6.41642 -1.85739,-3.71476 -1.85739,-7.76723 z m 98.10357,11.8197 q -14.69021,0.84427 -27.01647,-1.68852 -0.33771,-0.16886 -1.01312,-0.67542 -0.50656,-0.67541 -0.67541,-1.01311 v -0.84427 -0.84426 l 1.68853,-3.37706 25.32794,-43.90177 h 1.68853 q 0.16885,0 1.85738,1.85738 1.85738,1.68853 4.22133,4.05247 2.53279,2.36394 5.06558,5.06559 2.5328,2.5328 4.05248,4.22133 4.72788,5.06558 8.44264,11.65085 3.71477,6.41641 3.71477,13.50824 0,3.88361 -2.02624,7.59838 -1.85738,3.71476 -4.89673,6.58526 -3.03936,2.8705 -6.92297,4.72789 -3.88362,1.68853 -7.76724,1.68853 -3.71477,0 -4.55903,-2.36395 -0.84426,-2.53279 -1.18197,-6.24756 z m -94.55765,-138.45942 1.68853,-1.68852 h 114.82 l 1.68853,1.68852 q 0,0 -0.3377,0.84427 -0.33771,0.84426 -0.84427,2.02624 -0.50656,1.01311 -1.18197,2.19508 -0.50656,1.01312 -1.01312,1.68853 -4.05247,6.75412 -9.62461,16.37874 -5.57215,9.45576 -11.65086,19.75579 -5.90985,10.30003 -11.8197,20.43121 -5.90986,10.13118 -10.63774,18.23612 -4.55903,8.10494 -7.42953,13.17053 -2.8705,4.89674 -2.8705,4.89674 l -1.68853,1.68853 -1.68853,-1.68853 q -0.16885,-0.16886 -3.03935,-5.06559 -2.8705,-4.89674 -7.42953,-12.66397 -4.39018,-7.76724 -10.13118,-17.39186 -5.741,-9.79347 -11.482,-19.58694 -5.741,-9.96232 -11.1443,-19.08038 -5.23444,-9.11806 -9.11805,-15.70333 -0.67542,-1.01312 -1.51968,-2.70165 -0.84427,-1.68852 -1.68853,-3.37705 -0.84427,-1.68853 -1.35082,-2.8705 -0.50656,-1.18198 -0.50656,-1.18198 z m 57.41,55.72148 1.68853,1.68853 q 0.33771,-0.16885 0.84426,-0.67541 0.67542,-0.67542 0.84427,-1.01312 1.68853,-2.70165 4.05247,-6.92297 2.53279,-4.22133 5.23444,-8.78036 2.70165,-4.72788 5.06559,-9.45576 2.53279,-4.72788 4.22132,-8.6115 h -41.53782 z m -91.34945,-108.91015 q 0,-4.55903 2.02624,-7.76724 2.02623,-3.20821 7.42953,-3.20821 5.06559,0 8.10494,3.54592 3.03935,3.54591 3.03935,8.27379 0,10.30003 -10.30003,10.30003 -5.40329,0 -7.93608,-3.03935 -2.36395,-3.03936 -2.36395,-8.10494 z m 165.4759,0.84426 q 0,-4.72788 3.03935,-8.27379 3.03935,-3.54592 8.10494,-3.54592 5.741,0 7.59838,3.37706 1.85739,3.20821 1.85739,7.59839 0,5.06558 -2.5328,8.10494 -2.36394,3.03935 -7.76723,3.03935 -10.30003,0 -10.30003,-10.30003 z"
         style="font-style:normal;font-variant:normal;font-weight:bold;font-stretch:normal;font-size:168.85295105px;font-family:Roundels;-inkscape-font-specification:'Roundels Bold';fill:#ffffff;fill-opacity:1;stroke:#ffffff;stroke-width:0.21106619;stroke-opacity:1"
         id="path112" />
    </g>
    <path
       inkscape:connector-curvature="0"
       style="opacity:1;fill:#2b2b28;fill-opacity:1;fill-rule:nonzero;stroke:#2b2b28;stroke-width:13.00226593;stroke-linecap:round;stroke-linejoin:round;stroke-miterlimit:4;stroke-dasharray:none;stroke-dashoffset:0;stroke-opacity:1;paint-order:markers fill stroke"
       d="m 354.82519,178.94571 -242.1612,0.20743 0.16088,37.0069 242.1612,-0.20743 z"
       id="rect822-6-1-6" />
    <path
       inkscape:connector-curvature="0"
       style="opacity:1;fill:none;fill-opacity:1;fill-rule:nonzero;stroke:#898e8c;stroke-width:21.85193634;stroke-linecap:round;stroke-linejoin:round;stroke-miterlimit:4;stroke-dasharray:none;stroke-dashoffset:0;stroke-opacity:1;paint-order:markers fill stroke"
       d="m 277.67062,134.77379 a 39.530099,39.982417 0 0 0 -39.5301,-39.982401 39.530099,39.982417 0 0 0 -39.5301,39.982401 39.530099,39.982417 0 0 0 39.5301,39.98242 39.530099,39.982417 0 0 0 39.5301,-39.98242 z"
       id="path1390-7-0" />
    <path
       inkscape:connector-curvature="0"
       style="opacity:1;fill:none;fill-opacity:1;fill-rule:nonzero;stroke:#ffffff;stroke-width:11.71847439;stroke-linecap:round;stroke-linejoin:round;stroke-miterlimit:4;stroke-dasharray:none;stroke-dashoffset:0;stroke-opacity:1;paint-order:markers fill stroke"
       d="m 277.67062,134.7738 a 39.530098,39.982418 0 0 0 -39.5301,-39.982411 39.530098,39.982418 0 0 0 -39.5301,39.982411 39.530098,39.982418 0 0 0 39.5301,39.98242 39.530098,39.982418 0 0 0 39.5301,-39.98242 z"
       id="path1390-7" />
    <path
       inkscape:connector-curvature="0"
       style="opacity:1;fill:#007aa5;fill-opacity:1;fill-rule:nonzero;stroke:#007aa5;stroke-width:7.31772804;stroke-linecap:round;stroke-linejoin:round;stroke-miterlimit:4;stroke-dasharray:none;stroke-dashoffset:0;stroke-opacity:1;paint-order:markers fill stroke"
       d="m 268.57192,134.7738 a 30.431402,30.77961 0 0 0 -30.4314,-30.77961 30.431402,30.77961 0 0 0 -30.4314,30.77961 30.431402,30.77961 0 0 0 30.4314,30.77961 30.431402,30.77961 0 0 0 30.4314,-30.77961 z"
       id="path1390" />
    <path
       inkscape:connector-curvature="0"
       style="opacity:1;fill:#ffffff;fill-opacity:1;fill-rule:nonzero;stroke:#96938e;stroke-width:1.53116977;stroke-linecap:round;stroke-linejoin:round;stroke-miterlimit:4;stroke-dasharray:none;stroke-dashoffset:0;stroke-opacity:1;paint-order:markers fill stroke"
       d="m 321.79423,166.66011 a 6.3675008,6.4403601 0 0 0 -6.3675,-6.44036 6.3675008,6.4403601 0 0 0 -6.3675,6.44036 6.3675008,6.4403601 0 0 0 6.3675,6.44036 6.3675008,6.4403601 0 0 0 6.3675,-6.44036 z"
       id="path1390-4" />
    <path
       inkscape:connector-curvature="0"
       style="opacity:1;fill:#ffffff;fill-opacity:1;fill-rule:nonzero;stroke:#96938e;stroke-width:1.53116977;stroke-linecap:round;stroke-linejoin:round;stroke-miterlimit:4;stroke-dasharray:none;stroke-dashoffset:0;stroke-opacity:1;paint-order:markers fill stroke"
       d="m 167.12287,167.263 a 6.3675008,6.4403601 0 0 0 -6.3675,-6.44036 6.3675008,6.4403601 0 0 0 -6.3675,6.44036 6.3675008,6.4403601 0 0 0 6.3675,6.44036 6.3675008,6.4403601 0 0 0 6.3675,-6.44036 z"
       id="path1390-4-4" />
    <path
       inkscape:connector-curvature="0"
       style="opacity:1;fill:#ffffff;fill-opacity:1;fill-rule:nonzero;stroke:#007aa5;stroke-width:2.5585134;stroke-linecap:square;stroke-linejoin:miter;stroke-miterlimit:4;stroke-dasharray:none;stroke-opacity:1;paint-order:markers fill stroke"
       d="m 245.61394,123.20384 -7.43595,3.91953 -7.40784,-3.9736 1.38769,8.36412 -6.02552,5.89798 8.29359,1.24978 3.68386,7.61876 3.73803,-7.59172 8.30227,-1.18933 -5.98336,-5.94172 z"
       id="path2259" />
    <g
       aria-label="d"
       transform="matrix(-0.98770583,0,0,1.0124472,-2.0447642e-6,2.2461737)"
       style="font-style:normal;font-weight:normal;font-size:455.94302368px;line-height:1.25;font-family:sans-serif;letter-spacing:0px;word-spacing:0px;fill:#007aa5;fill-opacity:1;stroke:none;stroke-width:0.22797151"
       id="text62-6-6">
      <path
         inkscape:connector-curvature="0"
         d="m -105.06299,225.92502 q 0,77.17787 -38.20304,130.0447 -36.65949,50.74445 -97.82294,65.2153 -61.16346,-14.47085 -97.82295,-65.2153 -38.20304,-52.86683 -38.20304,-130.0447 0,-28.16992 11.96257,-53.83156 9.26134,-20.06624 21.99569,-32.02881 28.36287,17.55796 56.1469,17.55796 27.78403,0 45.92083,-17.17207 18.13679,17.17207 45.92083,17.17207 27.78403,0 56.14689,-17.55796 12.73435,11.96257 21.99569,32.02881 11.96257,25.66164 11.96257,53.83156 z"
         style="font-style:normal;font-variant:normal;font-weight:bold;font-stretch:normal;font-size:395.15066528px;font-family:Webdings;-inkscape-font-specification:'Webdings Bold';fill:#007aa5;fill-opacity:1;stroke:none;stroke-width:0.22797151"
         id="path103" />
    </g>
    <g
       aria-label="s"
       transform="matrix(0.7432315,0,0,1.3454758,-2.0447642e-6,2.2461737)"
       style="font-style:normal;font-variant:normal;font-weight:bold;font-stretch:normal;font-size:246.27545166px;line-height:1.25;font-family:'Cornucopia of Dingbats Four';-inkscape-font-specification:'Cornucopia of Dingbats Four Bold';letter-spacing:0px;word-spacing:0px;fill:#ffffff;fill-opacity:1;stroke:none;stroke-width:0.2308832"
       id="text507">
      <path
         inkscape:connector-curvature="0"
         d="m 337.16453,230.8383 q 2.46276,-0.49256 4.92551,0 2.70903,0.24627 4.67924,1.72392 0.24627,0 0.24627,0.24628 0,0 0.24628,0 1.47765,1.47765 2.46275,3.20158 0.9851,1.47765 2.46276,2.70903 0.9851,0.9851 2.46275,1.72393 1.47765,0.49255 4.67923,1.23138 -1.9702,2.70903 -5.17178,3.9404 -2.95531,1.23138 -5.66434,1.23138 0.24628,0.73883 0.49255,1.23138 0.24628,0.49255 0.49256,0.9851 0.24627,0.49255 0.24627,0.9851 0,0 0.49255,0.49255 0.24628,0.24628 0.24628,0.49255 0.73882,0.9851 1.47765,1.72393 0.9851,0.73883 1.9702,1.47765 1.47766,0.9851 2.21648,1.47766 0.73883,0.24627 1.23138,0.73882 0.73883,0.24628 1.47765,0.73883 0.9851,0.24627 2.46276,1.23138 l 1.47765,0.73882 q 0.9851,0.49255 1.47765,0.49255 0.73883,0.49255 1.47766,0 0.73882,0 1.72392,-0.9851 0.73883,-0.73883 1.72393,-1.23138 0.9851,-0.73882 1.97021,-1.23137 1.72392,-0.49255 2.46275,0 0.49255,0.73882 0.9851,0.24627 1.72393,-0.49255 2.46276,0 0.9851,0 1.72392,1.23138 0,0 0.24628,0.49255 0.49255,0.49255 -0.49255,0.49255 -0.9851,0 -1.47765,0.24628 -0.49255,0.49255 0.49255,0.49255 0.24627,0.24627 0.73882,0.24627 3.20158,0.9851 3.69414,2.95531 0.49255,1.23138 -0.98511,0.49255 -0.49255,-0.24628 -1.72392,-0.24628 -1.72393,0 -1.72393,0.49255 0,0.24628 0.49255,0.73883 0.9851,0.49255 1.47765,1.9702 0.49255,1.23138 0.49255,1.97021 0.24628,0.73882 0,2.21648 -0.24627,1.23137 -1.47765,1.47765 -0.24628,-0.24628 -0.24628,-0.49255 0,-0.49255 -0.24627,-0.73883 -0.24628,-0.49255 -1.23138,-0.9851 -0.73883,-0.73883 -1.47765,-0.73883 -0.73883,-0.24627 -1.47765,0 -0.49256,0.24628 -1.23138,-0.24627 -0.49255,-0.24628 -1.23138,-0.49255 -0.49255,-0.24628 -1.23138,-0.49255 -0.49255,-0.24628 -1.23137,-0.49255 -0.73883,-0.24628 -1.23138,0 -1.47765,0 -1.9702,0.24627 -1.23138,0.49255 -2.21648,1.47765 -0.98511,0.98511 -1.72393,2.21648 0,-0.24627 -0.49255,0.73883 -0.49255,0.73883 -1.23138,1.47765 -0.49255,0.49255 -1.72393,0.49255 -2.46275,0 -2.46275,1.72393 v 0.9851 q -0.73883,0 -0.73883,-0.73882 -0.24627,-0.49255 -0.49255,-1.23138 -0.24628,-0.73883 -0.49255,-1.23138 -0.24628,-0.49255 0,-0.73882 0.24627,-0.49255 0.24627,-0.98511 0,-0.49255 -0.24627,-0.9851 0,-0.49255 0.24627,-0.9851 0,-1.23138 1.47766,-2.21648 0.24627,-0.24627 0.9851,-0.24627 0.24627,-0.49255 0.49255,-0.49255 0.24628,-0.24628 0.49255,-0.49256 0.9851,-0.24627 0.9851,-0.9851 -0.24627,-0.73882 -0.49255,-1.23137 -0.24627,-0.49256 -0.73882,-0.98511 -1.23138,-0.73882 -1.72393,-1.72392 -1.23138,-1.23138 -1.97021,-1.97021 -0.73882,-0.73882 -1.9702,-1.72393 -0.9851,-0.9851 -2.21648,-1.23137 -1.23138,-0.24628 -2.21648,-0.98511 -0.49255,-0.49255 -0.73882,-0.9851 0,-0.73882 -0.24628,-1.23137 -0.24628,0 -0.73883,-1.23138 -0.49255,-1.47765 -1.23137,-3.20158 -2.21648,1.23138 -5.66434,1.47765 -3.20158,0 -3.44786,-0.73883 2.70903,-3.44785 1.72393,-4.9255 -0.49255,-0.73883 -1.72393,-2.21648 -0.9851,-1.72393 -1.72392,-1.97021 -1.23138,1.47766 -2.46276,3.69413 -0.9851,1.97021 -1.47765,2.95531 0,1.72393 1.23138,3.20158 1.23137,1.47765 2.70903,2.70903 1.47765,1.23138 2.9553,2.21648 1.47765,0.73883 2.21648,1.23138 -1.47765,1.9702 -3.44786,1.72392 -1.72392,-0.24627 -2.21647,-0.49255 0.49255,1.97021 1.9702,3.44786 1.72393,1.47765 3.69413,2.46275 1.9702,0.73883 3.94041,0.98511 1.9702,0 3.44785,-0.98511 0,4.92551 -3.20158,6.64944 -3.20158,1.72393 -7.63454,1.23138 0.98511,1.72393 3.20159,3.44786 2.21647,1.72392 3.9404,2.70903 -4.43296,3.20158 -9.35846,1.23137 -4.92551,-2.21648 -7.63454,-5.66433 -0.49255,1.23137 -0.98511,3.20158 -0.49255,1.9702 -1.23137,3.94041 -0.49255,1.9702 -1.23138,3.69413 -0.73883,1.47765 -1.72393,1.9702 -0.9851,-0.49255 -1.72393,-1.9702 -0.73882,-1.72393 -1.47765,-3.69413 -0.73883,-1.97021 -1.23138,-3.94041 -0.49255,-1.97021 -0.9851,-3.20158 -2.46275,3.44785 -7.38826,5.66433 -4.92551,1.97021 -9.35847,-1.23137 1.72393,-0.98511 3.94041,-2.70903 2.21648,-1.72393 3.20158,-3.44786 -4.43296,0.49255 -7.63454,-1.23138 -3.20158,-1.72393 -3.20158,-6.64944 1.47765,0.98511 3.44786,0.98511 1.9702,-0.24628 3.69413,-0.98511 1.9702,-0.9851 3.44785,-2.46275 1.72393,-1.47765 2.21648,-3.44786 -0.24627,0.24628 -2.21648,0.49255 -1.72392,0.24628 -3.20158,-1.72392 0.73883,-0.49255 2.21648,-1.23138 1.47766,-0.9851 2.95531,-2.21648 1.47765,-1.23138 2.70903,-2.70903 1.23138,-1.47765 1.23138,-3.20158 -0.49256,-0.9851 -1.72393,-2.95531 -0.9851,-2.21647 -2.21648,-3.69413 -0.73883,0.24628 -1.97021,1.97021 -0.9851,1.47765 -1.47765,2.21648 -0.49255,0.49255 -0.24627,1.72392 0.24627,1.23138 1.9702,3.20158 -0.24628,0.24628 -2.46275,0.73883 -3.69414,0 -6.64944,-1.47765 l -1.97021,4.43296 q -0.24627,0.49255 -0.49255,1.23137 0,0.49255 -0.49255,0.9851 -0.9851,0.73883 -2.21648,0.98511 -1.23137,0.24627 -2.21648,1.23137 -1.23137,0.98511 -1.9702,1.72393 -0.73883,0.73883 -1.9702,1.97021 -0.49255,0.49255 -0.9851,0.9851 -0.24628,0.24627 -0.73883,0.73882 -0.49255,0.49255 -0.73883,0.98511 -0.24627,0.49255 -0.49255,1.23137 0,0.73883 0.9851,0.9851 0.24628,0.24628 0.49255,0.49256 0.24628,0 0.49256,0.49255 0.73882,0 0.9851,0.24627 1.47765,0.9851 1.47765,2.21648 0.24628,0.49255 0,0.9851 0,0.49255 0,0.9851 0,0.49256 0.24628,0.98511 0.24627,0.24627 0,0.73882 -0.24628,0.49255 -0.49256,1.23138 -0.24627,0.73883 -0.49255,1.23138 0,0.73882 -0.73882,0.73882 -0.24628,-0.24627 -0.24628,-0.9851 0,-1.72393 -2.21648,-1.72393 -1.23137,0 -1.9702,-0.49255 -0.49255,-0.73882 -0.9851,-1.47765 -0.49255,-0.9851 -0.49255,-0.73883 -0.73883,-1.23137 -1.97021,-2.21648 -0.9851,-0.9851 -1.9702,-1.47765 -0.49255,-0.24627 -1.9702,-0.24627 -0.73883,-0.24628 -1.47766,0 -0.49255,0.24627 -0.9851,0.49255 -0.73883,0.24627 -1.47765,0.49255 -0.49255,0.24627 -1.23138,0.49255 -0.49255,0.49255 -1.23138,0.24627 -0.49255,-0.24627 -1.23137,0 -0.73883,0 -1.72393,0.73883 -0.73883,0.49255 -0.9851,0.9851 -0.24628,0.24628 -0.24628,0.73883 0,0.24627 -0.24627,0.49255 -1.23138,-0.24628 -1.47766,-1.47765 -0.24627,-1.47766 0,-2.21648 0,-0.73883 0.49255,-1.97021 0.49255,-1.47765 1.47766,-1.9702 0.49255,-0.49255 0.49255,-0.73883 0,-0.49255 -0.73883,-0.49255 -0.49255,0 -0.9851,0 -1.23138,0 -1.9702,0.24628 -1.23138,0.73883 -0.73883,-0.49255 0.49255,-1.23138 1.23138,-1.72393 0.9851,-0.73883 2.21648,-1.23138 0.24627,0 0.9851,0 0.9851,-0.24627 0.49255,-0.73882 -0.49255,-0.24628 -1.47765,-0.24628 -0.98511,0 -0.73883,-0.49255 l 0.49255,-0.49255 q 0.73883,-1.23138 1.47765,-1.23138 1.23138,-0.49255 2.46276,0 0.73882,0.24628 1.23137,-0.24627 0.49256,-0.49255 1.23138,-0.24628 0.73883,0 1.23138,0.24628 0.73883,0.49255 1.72393,1.23137 0.9851,0.49255 1.9702,1.23138 0.9851,0.9851 1.72393,0.9851 0.73883,0.49255 1.23138,0 0.9851,0 1.47765,-0.49255 0.49255,-0.24627 0.73883,-0.24627 0.49255,-0.24628 0.9851,-0.49255 1.47765,-0.98511 2.21648,-1.23138 0.9851,-0.49255 1.47765,-0.73883 0.73883,-0.49255 1.47765,-0.73882 0.73883,-0.49256 2.21648,-1.47766 0.9851,-0.73882 1.72393,-1.47765 0.9851,-0.73883 1.72393,-1.72393 0,-0.24627 0.24627,-0.49255 0,-0.24627 0,-0.24627 0.24628,0 0.24628,-0.24628 l 0.49255,-0.9851 q 0.24627,-0.49255 0.24627,-0.9851 0.24628,-0.49255 0.73883,-1.23138 -2.70903,0 -5.91061,-1.23138 -2.95531,-1.23137 -4.92551,-3.9404 3.20158,-0.73883 4.67923,-1.23138 1.47766,-0.73883 2.46276,-1.72393 1.47765,-1.23138 2.46275,-2.70903 0.98511,-1.72393 2.46276,-3.20158 0.24627,0 0.24627,0 0,-0.24628 0.24628,-0.24628 1.9702,-1.47765 4.43296,-1.72392 2.46275,-0.49256 5.17178,0 -0.9851,-2.46276 -1.47765,-6.15689 -0.24628,0.73883 -0.9851,1.9702 -0.49255,0.9851 -1.47766,0.9851 -1.23137,-0.24627 -1.9702,-1.47765 -0.49255,-1.23138 -0.9851,-2.21648 -0.73883,1.23138 -1.23138,2.46276 -0.24627,0.9851 -1.47765,1.72393 -1.9702,-0.49256 -2.21648,-1.47766 0,-1.23137 -0.49255,-2.70903 -0.24628,1.23138 -0.9851,2.70903 -0.49255,1.23138 -2.21648,1.72393 -1.23138,-0.49255 -1.97021,-1.72393 -0.49255,-1.47765 -0.49255,-3.20158 -0.73882,1.97021 -1.72392,3.20158 -0.73883,1.23138 -1.97021,1.47766 -1.23138,-0.73883 -1.23138,-2.46276 0,-1.9702 0.24628,-3.69413 -0.73883,1.72393 -2.21648,3.44786 -1.23138,1.47765 -3.20158,1.23137 -0.9851,-1.9702 -0.9851,-3.9404 0.24627,-1.97021 0.49255,-2.95531 -5.17179,2.95531 -11.82122,4.18668 -6.64944,0.9851 -13.29888,0.73883 -6.40316,-0.24628 -11.82122,-1.47765 -5.17178,-1.23138 -7.63454,-3.20158 4.67924,0 9.35847,-0.24628 4.92551,-0.49255 9.11219,-0.9851 4.43296,-0.73883 7.88082,-1.47765 3.44785,-0.73883 5.41806,-1.47766 0,-0.24627 -3.20159,0.24628 -3.20158,0.24627 -8.37336,0.73882 -5.17179,0.24628 -11.57495,0.49256 -6.15688,0 -12.06749,-0.73883 -5.91061,-0.9851 -10.83612,-2.95531 -4.67924,-2.21648 -6.89572,-6.15688 5.17179,0.49255 9.85102,0.9851 4.67924,0.49255 9.60474,0.73883 5.17179,0 11.0824,-0.24628 5.91061,-0.24628 13.54515,-1.47765 -5.66434,0 -14.0377,0 -8.37337,0 -17.23928,-1.23138 -8.61964,-1.47765 -16.74673,-4.92551 -7.88082,-3.44786 -12.31378,-10.58984 2.95531,1.23137 9.1122,2.46275 6.40316,0.9851 13.54515,1.9702 7.14198,0.73883 13.79142,1.23138 6.89571,0.49255 10.58984,0.49255 -1.9702,-0.24627 -7.14198,-0.9851 -4.92551,-0.9851 -11.57495,-2.46275 -6.64944,-1.47766 -14.0377,-3.44786 -7.38826,-2.21648 -13.79143,-4.92551 -6.15688,-2.9553 -10.83612,-6.40316 -4.67923,-3.44786 -5.66433,-7.63454 2.9553,0.9851 8.37336,2.46275 5.41806,1.23138 11.82123,2.70903 6.64943,1.47766 13.29887,2.95531 6.64944,1.47765 12.0675,2.46275 5.41806,0.98511 8.61964,1.47766 3.20158,0.49255 2.70903,0 -9.60474,-1.47766 -22.90362,-5.41806 -13.0526,-4.18669 -26.84402,-10.83612 -4.43296,-2.21648 -8.12709,-4.67924 -3.44786,-2.70903 -5.66434,-4.9255 -2.21648,-2.21648 -3.20158,-3.69414 -0.73883,-1.72392 0,-2.21648 6.89571,2.70903 14.77653,5.66434 8.12709,2.70903 16.50045,5.17178 8.37337,2.46276 16.74673,4.18669 8.37337,1.72393 16.25418,2.21648 -7.63453,-1.72393 -13.54515,-3.20158 -5.91061,-1.47766 -11.32867,-3.44786 -5.41806,-2.21648 -11.32867,-5.17179 -5.91061,-3.20158 -13.54515,-8.12709 -2.70903,-1.72392 -6.15688,-4.67923 -3.20158,-3.20158 -5.66434,-5.91061 -2.21648,-2.70903 -2.46275,-3.94041 -0.24628,-1.23137 3.44785,0.49255 2.21648,1.23138 7.38827,3.69414 5.17178,2.21647 12.06749,5.17178 7.14199,2.70903 15.26908,5.66434 8.37337,2.70903 17.23928,4.67923 9.35847,1.9702 16.25418,3.69413 6.89572,1.47765 9.60475,1.72393 -0.49256,-0.9851 -1.23138,-2.70903 -0.49255,-1.72393 -0.49255,-4.67923 1.47765,1.9702 5.41806,3.44785 3.9404,1.47765 8.61964,2.95531 4.92551,1.47765 9.60474,2.9553 4.92551,1.47766 8.61964,3.20158 1.72393,0.73883 3.44786,2.21648 1.72393,1.47766 2.21648,4.18669 0.49255,2.70902 0,4.9255 -0.24628,2.21648 -0.9851,4.18669 -0.73883,1.9702 -1.72393,4.18668 -0.9851,1.9702 -1.47766,4.18668 -0.73882,3.69413 0.73883,6.89571 1.47765,2.95531 4.92551,3.94041 1.23138,0.49255 2.70903,0.24628 1.47765,-0.24628 3.20158,-0.73883 0.9851,-0.49255 1.23138,-0.73883 0.49255,-0.49255 0.9851,-0.9851 0.24628,-0.73882 0.49255,-1.23137 0.49255,-0.73883 0.73883,-1.23138 v -0.49255 q 0,-0.49255 -0.49255,-0.9851 -0.49255,-0.49256 -0.73883,-0.73883 -1.23138,-2.46276 -1.23138,-3.94041 0,-0.73882 0.24628,-0.73882 1.72393,0.73882 3.20158,0.49255 1.47765,-0.24628 2.21648,-0.73883 1.72393,-0.49255 3.94041,-2.95531 2.21647,-2.70903 2.9553,-3.9404 0.9851,-1.23138 -0.49255,-0.9851 -1.47765,0.24627 -1.72393,-0.24628 2.21648,-2.46275 3.94041,-4.18668 1.72393,-1.72393 2.46275,-3.44786 1.97021,-3.20158 2.46276,-4.92551 0.73882,-1.9702 -0.73883,-3.69413 -2.70903,-0.49255 -4.92551,-0.73883 -2.21648,-0.24627 -5.41806,1.72393 -2.21648,1.47766 -2.46275,2.95531 -0.24628,1.47765 -0.73883,1.9702 -1.9702,-0.9851 -1.72393,-2.46275 0.49255,-2.70903 2.46276,-3.94041 0,-0.24628 0.24627,-0.49255 0.49255,-0.24628 0.73883,-0.49255 -1.23138,0.49255 -2.70903,1.23138 -1.23138,0.49255 -2.46275,1.23137 -2.70903,1.47766 -4.92551,1.72393 -2.70903,0 -4.92551,-1.23138 -1.97021,-1.23137 -1.72393,-3.9404 0,-1.47766 0.24627,-2.46276 0.49256,-0.49255 0.49256,-0.24627 0.49255,1.47765 1.72392,2.21648 1.23138,0.49255 2.70903,0.9851 1.47766,0.24627 2.95531,-0.24628 2.70903,-0.49255 5.17178,-1.72393 2.46276,-1.47765 5.17179,-1.72392 0.49255,0 0.9851,0 0.73883,-0.24628 1.23138,0 -1.23138,-0.49256 -2.46276,-0.98511 -1.23137,-0.73882 -2.46275,-0.73882 -1.97021,0.24627 -3.44786,0.9851 -1.47765,0.49255 -3.20158,1.72393 -0.9851,0.73882 -1.23138,0 -0.49255,-0.49255 -0.49255,-1.72393 -0.9851,-2.95531 1.47766,-6.89571 0.9851,-1.72393 2.46275,-2.95531 1.72393,-1.23138 3.69413,-1.9702 1.23138,-0.49255 2.46276,-0.49255 1.23137,-0.24628 2.46275,-0.24628 0.73883,-1.23138 1.23138,-1.47765 0.73882,-0.49255 2.21648,-0.73883 0.24627,-1.23138 1.47765,-2.21648 1.23138,-1.23137 2.46275,-1.72393 4.18669,-1.23137 8.12709,0.24628 4.18669,1.23138 7.88082,1.9702 3.44785,0.49255 7.63454,0.24628 4.43296,-0.49255 5.17178,-0.9851 -0.49255,2.21648 -1.47765,4.67923 -0.9851,2.21648 -3.20158,3.44786 1.47765,1.23137 3.44785,4.67923 1.97021,3.20158 2.95531,6.89571 0.49255,0.73883 -0.49255,0.24628 -0.9851,-0.73883 -0.73883,0.24627 0.49255,2.70903 0.9851,5.66434 0.49256,2.70903 0.98511,5.41806 1.23137,2.70903 0.9851,4.67923 0,1.97021 -0.9851,0.73883 -0.24628,0.49255 -0.24628,1.9702 0.24628,1.47766 0.73883,3.20158 0.49255,1.72393 0.73882,2.95531 0.24628,1.23138 0,1.9702 0,0.49255 -0.9851,-0.49255 -1.23138,-1.23138 -1.72393,-0.49255 -0.24627,0.49255 0.24628,1.72393 0.73883,0.73883 1.23138,0.73883 0.73882,0.49255 2.21648,0.73882 1.47765,0 2.9553,-0.73882 0.49255,0 0.49255,0.49255 0,2.21648 -0.9851,3.9404 -1.47765,1.47766 -1.47765,1.97021 v 0.9851 q 0.49255,0.49255 0.73882,0.9851 0.24628,0.49255 0.49255,0.9851 0.49256,0.49255 0.73883,0.9851 0.49255,0.24628 1.47765,0.73883 1.72393,0.49255 3.20158,0.73883 1.47766,0.24627 2.70903,-0.24628 3.44786,-0.9851 4.92551,-3.94041 1.47766,-3.20158 0.73883,-6.89571 -1.23138,-4.67923 -3.20158,-8.37336 -1.9702,-3.69414 -1.23138,-9.11219 0.49255,-2.70903 2.21648,-4.18669 1.9702,-1.47765 3.69413,-2.21648 3.69413,-1.72392 8.37337,-3.20158 4.92551,-1.47765 9.60474,-2.9553 4.67923,-1.47766 8.61964,-2.95531 3.94041,-1.47765 5.41806,-3.44785 0.24628,2.9553 -0.49255,4.67923 -0.49255,1.72393 -0.9851,2.70903 2.70903,-0.24628 9.60474,-1.72393 6.89571,-1.72393 16.25418,-3.69413 8.86592,-1.9702 16.99301,-4.67923 8.37336,-2.95531 15.26908,-5.66434 7.14198,-2.95531 12.31377,-5.17178 5.17178,-2.46276 7.38826,-3.69414 3.69413,-1.72392 3.44786,-0.49255 -0.24628,1.23138 -2.70903,3.94041 -2.21648,2.70903 -5.66434,5.91061 -3.20158,2.95531 -5.91061,4.67923 -7.63454,4.92551 -13.54515,8.12709 -5.91061,2.95531 -11.32867,5.17179 -5.41806,1.9702 -11.32867,3.44786 -5.91061,1.47765 -13.54515,3.20158 7.88081,-0.49255 16.25418,-2.21648 8.37337,-1.72393 16.74673,-4.18669 8.37337,-2.46275 16.25418,-5.17178 7.88082,-2.95531 15.0228,-5.66434 0.73883,0.49256 -0.24627,2.21648 -0.73883,1.47766 -2.95531,3.69414 -2.21648,2.21647 -5.91061,4.9255 -3.44785,2.46276 -7.88081,4.67924 -13.79143,6.64943 -27.0903,10.83612 -13.0526,3.9404 -22.65734,5.41806 -0.49256,0.49255 2.70903,0 3.20158,-0.49255 8.61964,-1.47766 5.41806,-0.9851 12.06749,-2.46275 6.64944,-1.47765 13.0526,-2.95531 6.64944,-1.47765 12.0675,-2.70903 5.41806,-1.47765 8.37337,-2.46275 -1.23138,4.18668 -5.91062,7.63454 -4.43295,3.44786 -10.83612,6.40316 -6.15688,2.70903 -13.54515,4.92551 -7.38826,1.9702 -14.0377,3.44786 -6.64943,1.47765 -11.82122,2.46275 -4.92551,0.73883 -6.89571,0.9851 3.69413,0 10.34357,-0.49255 6.89571,-0.49255 14.0377,-1.23138 7.14199,-0.9851 13.29887,-1.9702 6.40317,-1.23138 9.35847,-2.46275 -4.67923,7.14198 -12.56005,10.58984 -7.88081,3.44786 -16.74673,4.92551 -8.86591,1.23138 -17.23928,1.23138 -8.37337,0 -13.79142,0 7.63453,1.23137 13.54514,1.47765 5.91062,0.24628 10.83612,0.24628 5.17179,-0.24628 9.85102,-0.73883 4.67924,-0.49255 9.85102,-0.9851 -2.21648,3.9404 -7.14199,6.15688 -4.67923,1.97021 -10.58984,2.95531 -5.91061,0.73883 -12.31377,0.73883 -6.15689,-0.24628 -11.32867,-0.49256 -5.17179,-0.49255 -8.37337,-0.73882 -3.20158,-0.49255 -3.20158,-0.24628 1.9702,0.73883 5.41806,1.47766 3.44786,0.73882 7.63454,1.47765 4.43296,0.49255 9.11219,0.9851 4.92551,0.24628 9.60474,0.24628 -2.70903,1.9702 -8.12709,3.20158 -5.17178,1.23137 -11.57494,1.47765 -6.40317,0.24627 -13.0526,-0.73883 -6.64944,-1.23137 -11.82122,-4.18668 0.24627,0.9851 0.24627,2.95531 0.24628,1.9702 -0.9851,3.9404 -1.9702,0.24628 -3.20158,-1.23137 -1.23138,-1.72393 -1.97021,-3.44786 0.24628,1.72393 0.24628,3.69413 0,1.72393 -1.23138,2.46276 -1.23137,-0.24628 -2.21648,-1.47766 -0.9851,-1.23137 -1.47765,-3.20158 0,1.72393 -0.73883,3.20158 -0.49255,1.23138 -1.72392,1.72393 -1.72393,-0.49255 -2.46276,-1.72393 -0.49255,-1.47765 -0.73882,-2.70903 -0.49256,1.47766 -0.73883,2.70903 0,0.9851 -1.9702,1.47766 -1.23138,-0.73883 -1.72393,-1.72393 -0.24628,-1.23138 -0.9851,-2.46276 -0.49256,0.9851 -1.23138,2.21648 -0.49255,1.23138 -1.72393,1.47765 -1.23138,0 -1.72393,-0.9851 -0.49255,-1.23137 -0.73882,-1.9702 -0.24628,1.72393 -0.73883,3.44786 -0.24628,1.47765 -0.73883,2.70903 z"
         style="font-style:normal;font-variant:normal;font-weight:bold;font-stretch:normal;font-family:'Cornucopia of Dingbats Four';-inkscape-font-specification:'Cornucopia of Dingbats Four Bold';fill:#ffffff;fill-opacity:1;stroke-width:0.2308832"
         id="path100" />
    </g>
    <path
       inkscape:connector-curvature="0"
       style="opacity:1;fill:#007aa5;fill-opacity:1;fill-rule:nonzero;stroke:none;stroke-width:3.14531422;stroke-miterlimit:4;stroke-dasharray:none;paint-order:fill markers stroke"
       d="M 215.40482,162.28279 H 260.8452 V 395.77101 H 215.40482 Z"
       id="rect527" />
    <path
       inkscape:connector-curvature="0"
       style="opacity:1;fill:#007aa5;fill-opacity:1;fill-rule:nonzero;stroke:none;stroke-width:2.51710439;stroke-miterlimit:4;stroke-dasharray:none;paint-order:fill markers stroke"
       d="m 286.34229,317.02055 v 70.46094 H 189.9077 v -70.46094 z"
       id="rect527-5" />
    <path
       inkscape:connector-curvature="0"
       style="opacity:1;fill:#007aa5;fill-opacity:1;fill-rule:nonzero;stroke:none;stroke-width:0.4838185;stroke-miterlimit:4;stroke-dasharray:none;paint-order:fill markers stroke"
       d="m 227.80533,211.30161 v 14.20614 h -17.67126 v -14.20614 z"
       id="rect527-5-8" />
    <path
       inkscape:connector-curvature="0"
       style="opacity:1;fill:#ffffff;fill-opacity:1;fill-rule:nonzero;stroke:none;stroke-width:0.7590242;stroke-miterlimit:4;stroke-dasharray:none;paint-order:fill markers stroke"
       d="m 238.10902,186.90668 55.83778,165.59889 -111.67557,-10e-6 z"
       id="path1448" />
    <path
       inkscape:connector-curvature="0"
       style="opacity:1;fill:#ffffff;fill-opacity:1;fill-rule:nonzero;stroke:none;stroke-width:1.34260166;stroke-miterlimit:4;stroke-dasharray:none;paint-order:fill markers stroke"
       d="M 182.26527,341.27757 H 293.98473 V 353.9996 H 182.26527 Z"
       id="rect1464" />
    <path
       inkscape:connector-curvature="0"
       style="opacity:1;fill:#ffffff;fill-opacity:1;fill-rule:nonzero;stroke:none;stroke-width:0.82316357;stroke-miterlimit:4;stroke-dasharray:none;paint-order:fill markers stroke"
       d="m 190.27074,353.08565 h 39.66278 v 13.47038 h -39.66278 z"
       id="rect1464-4" />
    <path
       inkscape:connector-curvature="0"
       style="opacity:1;fill:#ffffff;fill-opacity:1;fill-rule:nonzero;stroke:none;stroke-width:0.82316357;stroke-miterlimit:4;stroke-dasharray:none;paint-order:fill markers stroke"
       d="m 246.31648,353.08565 h 39.66279 v 13.47038 h -39.66279 z"
       id="rect1464-4-6" />
    <path
       inkscape:connector-curvature="0"
       style="opacity:1;fill:#ffffff;fill-opacity:1;fill-rule:nonzero;stroke:none;stroke-width:1.3615458;stroke-miterlimit:4;stroke-dasharray:none;paint-order:fill markers stroke"
       d="m 253.10126,203.37508 a 16.668749,16.668749 0 0 1 -16.66875,16.66875 16.668749,16.668749 0 0 1 -16.66875,-16.66875 16.668749,16.668749 0 0 1 16.66875,-16.66875 16.668749,16.668749 0 0 1 16.66875,16.66875 z"
       id="path1462" />
    <path
       inkscape:connector-curvature="0"
       style="opacity:1;fill:#ffffff;fill-opacity:1;fill-rule:nonzero;stroke:none;stroke-width:0.06888603;stroke-miterlimit:4;stroke-dasharray:none;paint-order:fill markers stroke"
       d="m 209.48339,187.47576 12.70155,14.25849 4.79502,-6.60972 z"
       id="path1448-1-1" />
    <path
       inkscape:connector-curvature="0"
       style="opacity:1;fill:#ffffff;fill-opacity:1;fill-rule:nonzero;stroke:none;stroke-width:0.06888603;stroke-miterlimit:4;stroke-dasharray:none;paint-order:fill markers stroke"
       d="m 214.27842,180.86604 12.70155,14.25849 4.79502,-6.60972 z"
       id="path1448-1-8-4" />
    <path
       inkscape:connector-curvature="0"
       style="opacity:1;fill:#ffffff;fill-opacity:1;fill-rule:nonzero;stroke:none;stroke-width:0.66996694;stroke-miterlimit:4;stroke-dasharray:none;paint-order:fill markers stroke"
       d="m 246.32708,391.71281 a 8.2020826,8.2020826 0 0 1 -8.20208,8.20209 8.2020826,8.2020826 0 0 1 -8.20208,-8.20209 8.2020826,8.2020826 0 0 1 8.20208,-8.20208 8.2020826,8.2020826 0 0 1 8.20208,8.20208 z"
       id="path1462-9" />
    <g
       aria-label="d"
       transform="matrix(1.0025472,0,0,0.99745928,-2.0447642e-6,2.2461737)"
       style="font-style:normal;font-weight:normal;font-size:468.3416748px;line-height:1.25;font-family:sans-serif;letter-spacing:0px;word-spacing:0px;fill:none;fill-opacity:1;stroke:#ffffff;stroke-width:17.91048622;stroke-miterlimit:4;stroke-dasharray:none;stroke-opacity:1"
       id="text62-6-2">
      <path
         inkscape:connector-curvature="0"
         d="m 377.24497,232.67858 q 0,79.27658 -39.24191,133.58105 -37.65638,52.12435 -100.48307,66.98871 -62.8267,-14.86436 -100.48307,-66.98871 -39.241913,-54.30447 -39.241913,-133.58105 0,-28.93595 12.287873,-55.29542 9.51319,-20.61191 22.59382,-32.89978 29.13415,18.03542 57.67372,18.03542 28.53957,0 47.16957,-17.63904 18.63,17.63904 47.16957,17.63904 28.53957,0 57.67371,-18.03542 13.08064,12.28787 22.59383,32.89978 12.28787,26.35947 12.28787,55.29542 z"
         style="font-style:normal;font-variant:normal;font-weight:bold;font-stretch:normal;font-size:405.89611816px;font-family:Webdings;-inkscape-font-specification:'Webdings Bold';fill:none;stroke:#ffffff;stroke-width:17.91048622;stroke-miterlimit:4;stroke-dasharray:none;stroke-opacity:1"
         id="path86" />
    </g>
  </g>
</svg>
