<?xml version="1.0" encoding="UTF-8" standalone="no"?>
<!DOCTYPE svg PUBLIC "-//W3C//DTD SVG 1.1//EN" "http://www.w3.org/Graphics/SVG/1.1/DTD/svg11.dtd">
<svg width="100%" height="100%" viewBox="0 0 1800 1800" version="1.1" xmlns="http://www.w3.org/2000/svg" xmlns:xlink="http://www.w3.org/1999/xlink" xml:space="preserve" xmlns:serif="http://www.serif.com/" style="fill-rule:evenodd;clip-rule:evenodd;stroke-linejoin:round;stroke-miterlimit:2;">
    <g id="Midori-Browser" serif:id="Midori Browser" transform="matrix(0.700659,0,0,1.07914,0.00797663,-1707.19)">
        <rect x="-0.011" y="1582" width="2569.01" height="1668" style="fill:none;"/>
        <g transform="matrix(2139.69,-6.79337e-29,1.0463e-28,-1389.25,237.668,2427.93)">
            <path d="M0.398,0.472C0.335,0.463 0.283,0.44 0.235,0.422C0.139,0.386 0.052,0.38 0.045,0.373C0.038,0.367 0.061,0.353 0.049,0.34C0.036,0.323 -0.018,0.329 -0.021,0.322C-0.028,0.306 0.017,0.296 0.013,0.279C0.008,0.26 -0.028,0.273 -0.032,0.26C-0.04,0.228 0.071,0.25 0.011,0.207C0.02,0.203 0.031,0.205 0.04,0.206C0.081,0.211 0.093,0.196 0.09,0.157C0.081,0.197 0.075,0.198 0.044,0.196C0.035,0.195 0.026,0.19 0.021,0.181C0.008,0.158 -0.003,0.132 -0.011,0.108C-0.014,0.1 -0.009,0.092 -0.001,0.092C0.046,0.089 0.092,0.063 0.114,0.022C0.132,0.073 0.168,0.118 0.216,0.145C0.202,0.144 0.188,0.145 0.174,0.147C0.203,0.15 0.232,0.153 0.26,0.161C0.288,0.169 0.315,0.182 0.343,0.191C0.309,0.169 0.272,0.149 0.232,0.146C0.177,0.12 0.138,0.065 0.121,0.008C0.168,-0.066 0.215,-0.087 0.288,-0.028C0.287,0.059 0.407,0.171 0.457,0.213C0.494,0.233 0.569,0.283 0.575,0.327C0.576,0.332 0.573,0.335 0.57,0.336C0.513,0.312 0.454,0.292 0.394,0.279C0.385,0.277 0.368,0.273 0.36,0.272C0.348,0.269 0.336,0.27 0.325,0.263C0.313,0.256 0.302,0.275 0.314,0.282C0.317,0.284 0.32,0.284 0.323,0.283C0.329,0.282 0.335,0.282 0.34,0.282L0.349,0.283C0.426,0.294 0.503,0.316 0.574,0.348C0.596,0.365 0.508,0.473 0.415,0.473C0.409,0.473 0.404,0.473 0.398,0.472ZM0.257,0.377C0.263,0.381 0.279,0.395 0.289,0.396C0.299,0.397 0.322,0.396 0.33,0.392C0.345,0.384 0.371,0.363 0.371,0.358C0.371,0.352 0.362,0.357 0.362,0.357C0.36,0.35 0.337,0.328 0.328,0.326C0.322,0.325 0.316,0.324 0.311,0.324C0.267,0.324 0.263,0.368 0.257,0.377ZM0.483,0.373C0.483,0.382 0.497,0.382 0.497,0.373C0.497,0.369 0.493,0.367 0.49,0.367C0.487,0.367 0.483,0.369 0.483,0.373ZM0.463,0.218C0.459,0.215 0.457,0.213 0.457,0.213C0.459,0.215 0.461,0.217 0.463,0.218ZM0.649,0.335C0.654,0.337 0.659,0.338 0.664,0.339C0.713,0.347 0.767,0.343 0.812,0.316C0.818,0.313 0.823,0.31 0.829,0.311C0.844,0.314 0.859,0.315 0.873,0.314C0.821,0.338 0.773,0.349 0.729,0.349C0.7,0.349 0.673,0.344 0.649,0.335ZM0.665,0.332C0.655,0.331 0.645,0.33 0.635,0.328C0.632,0.328 0.628,0.326 0.624,0.325C0.582,0.303 0.549,0.265 0.529,0.222C0.583,0.24 0.641,0.242 0.697,0.233C0.705,0.232 0.712,0.235 0.716,0.242C0.728,0.259 0.744,0.274 0.761,0.286C0.772,0.293 0.784,0.299 0.796,0.303C0.802,0.305 0.803,0.313 0.797,0.315C0.77,0.33 0.738,0.334 0.706,0.334C0.692,0.334 0.679,0.333 0.665,0.332ZM0.702,0.192C0.777,0.23 0.857,0.204 0.918,0.178C0.969,0.156 1.007,0.134 1.019,0.149C1.043,0.181 0.959,0.272 0.88,0.311C0.88,0.311 0.88,0.311 0.88,0.311C0.806,0.304 0.726,0.267 0.702,0.192ZM0.535,0.214C0.528,0.213 0.523,0.208 0.52,0.202C0.503,0.157 0.496,0.11 0.493,0.064C0.492,0.052 0.5,0.042 0.512,0.039C0.573,0.024 0.635,0.014 0.697,0.005C0.712,0.002 0.726,0.015 0.723,0.031C0.714,0.098 0.698,0.134 0.697,0.172L0.697,0.172C0.696,0.184 0.698,0.196 0.701,0.208C0.704,0.216 0.697,0.225 0.688,0.225C0.678,0.226 0.668,0.226 0.658,0.226C0.617,0.226 0.575,0.223 0.535,0.214ZM0.352,0.037C0.344,0.047 0.363,0.076 0.35,0.076C0.326,0.075 0.345,0.027 0.328,0.007C0.299,-0.032 0.258,-0.078 0.204,-0.075C0.149,-0.071 0.12,0.002 0.093,0.035C0.08,0.048 0.065,0.058 0.049,0.065C0.034,0.073 0.016,0.078 -0.001,0.081C-0.012,0.083 -0.022,0.077 -0.025,0.067C-0.045,-0.003 -0.049,-0.068 -0.04,-0.128C-0.039,-0.135 -0.032,-0.139 -0.026,-0.137C-0.023,-0.135 -0.02,-0.134 -0.017,-0.133C0.017,-0.122 0.055,-0.13 0.085,-0.147C0.098,-0.153 0.11,-0.162 0.121,-0.171C0.133,-0.177 0.145,-0.182 0.157,-0.185C0.251,-0.207 0.305,-0.106 0.348,-0.04C0.35,-0.037 0.355,-0.037 0.361,-0.037C0.367,-0.037 0.375,-0.037 0.381,-0.032C0.387,-0.026 0.396,-0.01 0.409,-0.001C0.426,0.012 0.438,0.001 0.443,0.021C0.445,0.027 0.433,0.025 0.422,0.024C0.415,0.023 0.407,0.022 0.406,0.024C0.402,0.027 0.407,0.033 0.424,0.045C0.435,0.053 0.445,0.055 0.441,0.069C0.438,0.08 0.425,0.07 0.413,0.061C0.403,0.054 0.394,0.046 0.392,0.048C0.389,0.051 0.389,0.054 0.401,0.068C0.415,0.084 0.425,0.083 0.42,0.098C0.42,0.099 0.419,0.1 0.417,0.1C0.404,0.1 0.367,0.068 0.352,0.037ZM0.463,-0.128C0.484,-0.147 0.508,-0.162 0.532,-0.176C0.573,-0.198 0.616,-0.217 0.661,-0.229C0.679,-0.233 0.697,-0.224 0.704,-0.207C0.726,-0.15 0.733,-0.086 0.729,-0.025C0.728,-0.015 0.72,-0.007 0.71,-0.007C0.636,-0.001 0.561,0.011 0.491,0.037C0.487,-0.028 0.487,-0.087 0.463,-0.128ZM0.2,-0.199C0.279,-0.248 0.392,-0.225 0.444,-0.148C0.406,-0.166 0.348,-0.149 0.314,-0.108C0.289,-0.149 0.252,-0.192 0.2,-0.199ZM0.406,-0.2C0.361,-0.266 0.368,-0.352 0.402,-0.421C0.411,-0.438 0.43,-0.447 0.448,-0.442C0.549,-0.413 0.63,-0.346 0.678,-0.261C0.683,-0.252 0.678,-0.242 0.669,-0.24C0.664,-0.239 0.659,-0.239 0.655,-0.238C0.583,-0.221 0.512,-0.188 0.46,-0.134C0.447,-0.16 0.429,-0.183 0.406,-0.2ZM-0.013,-0.144C-0.026,-0.147 -0.034,-0.161 -0.031,-0.174C-0.01,-0.255 0.036,-0.324 0.098,-0.373C0.1,-0.367 0.102,-0.361 0.105,-0.356C0.133,-0.298 0.186,-0.25 0.248,-0.232C0.222,-0.227 0.198,-0.215 0.178,-0.199C0.155,-0.197 0.133,-0.187 0.114,-0.174C0.104,-0.166 0.093,-0.16 0.081,-0.156C0.059,-0.147 0.037,-0.141 0.014,-0.141C0.005,-0.141 -0.004,-0.142 -0.013,-0.144ZM0.325,-0.235C0.307,-0.237 0.289,-0.238 0.271,-0.236C0.264,-0.235 0.258,-0.234 0.252,-0.238C0.197,-0.261 0.148,-0.303 0.117,-0.354C0.109,-0.368 0.114,-0.385 0.127,-0.394C0.201,-0.442 0.299,-0.465 0.391,-0.453C0.4,-0.452 0.404,-0.442 0.399,-0.435C0.396,-0.43 0.393,-0.425 0.39,-0.42C0.355,-0.356 0.349,-0.272 0.391,-0.21C0.371,-0.223 0.348,-0.231 0.325,-0.235Z" style="fill:url(#_Linear1);fill-rule:nonzero;"/>
        </g>
    </g>
    <defs>
        <linearGradient id="_Linear1" x1="0" y1="0" x2="1" y2="0" gradientUnits="userSpaceOnUse" gradientTransform="matrix(1,0,0,-1,0,0.00859082)"><stop offset="0" style="stop-color:rgb(49,52,53);stop-opacity:1"/><stop offset="0.5" style="stop-color:rgb(70,183,43);stop-opacity:1"/><stop offset="1" style="stop-color:rgb(148,204,37);stop-opacity:1"/></linearGradient>
    </defs>
</svg>
