<?xml version="1.0" encoding="UTF-8" standalone="no"?>
<svg
   xmlns:dc="http://purl.org/dc/elements/1.1/"
   xmlns:cc="http://creativecommons.org/ns#"
   xmlns:rdf="http://www.w3.org/1999/02/22-rdf-syntax-ns#"
   xmlns:svg="http://www.w3.org/2000/svg"
   xmlns="http://www.w3.org/2000/svg"
   xmlns:sodipodi="http://sodipodi.sourceforge.net/DTD/sodipodi-0.dtd"
   xmlns:inkscape="http://www.inkscape.org/namespaces/inkscape"
   viewBox="0 0 16 16"
   version="1.1"
   id="svg6"
   sodipodi:docname="go-home.svg"
   inkscape:version="0.92.4 (5da689c313, 2019-01-14)">
  <metadata
     id="metadata10">
    <rdf:RDF>
      <cc:Work
         rdf:about="">
        <dc:format>image/svg+xml</dc:format>
        <dc:type
           rdf:resource="http://purl.org/dc/dcmitype/StillImage" />
      </cc:Work>
    </rdf:RDF>
  </metadata>
  <sodipodi:namedview
     pagecolor="#ffffff"
     bordercolor="#666666"
     borderopacity="1"
     objecttolerance="10"
     gridtolerance="10"
     guidetolerance="10"
     inkscape:pageopacity="0"
     inkscape:pageshadow="2"
     inkscape:window-width="1920"
     inkscape:window-height="1016"
     id="namedview8"
     showgrid="false"
     inkscape:zoom="22.627417"
     inkscape:cx="10.619908"
     inkscape:cy="9.7622406"
     inkscape:window-x="1912"
     inkscape:window-y="-8"
     inkscape:window-maximized="1"
     inkscape:current-layer="svg6"
     inkscape:snap-global="false" />
  <defs
     id="defs3051">
    <style
       type="text/css"
       id="current-color-scheme">
      .ColorScheme-Text {
        color:#4d4d4d;
      }
      </style>
  </defs>
  <path
     inkscape:connector-curvature="0"
     style="fill:#4d4d4d;fill-opacity:1;stroke:none"
     d="M 8,2 7.2929688,2.6992188 7.296875,2.703125 2,7.9980469 V 8 9 h 1.0078125 v 4 H 3 v 1 H 13 V 13 9 h 1 V 8 7.9980469 L 12.857422,6.8554688 12.15625,7.5566406 12.599609,8 H 12 v 5 H 9 V 10 H 7 v 3 H 4 V 9 8 H 3.4003906 L 7.9980469,3.4042969 8,3.40625 8.0019531,3.4042969 9.4433594,4.84375 10.144531,4.1425781 8.703125,2.703125 8.707035,2.699215 Z"
     id="path10" />
  <path
     inkscape:connector-curvature="0"
     style="fill:#4d4d4d;fill-opacity:1;stroke:none"
     d="m 8.0000001,1.9999998 0.707031,0.6992188 -0.0039,0.00391 5.2968759,5.2949219 v 0.00195 0.9999998 H 12.992194 V 13 h 0.0078 v 1 H 2.9999931 V 13 9.0000003 h -1 v -1.0000005 -0.00195 l 1.142585,-1.1425781 0.701172,0.7011718 -0.443359,0.4433595 h 0.599609 v 4.999999 h 3 v -3 h 2 v 3 H 12.000001 V 9.0000023 8.0000029 h 0.599609 l -4.5976569,-4.5957032 -0.002,0.00195 -0.002,-0.00195 -1.441407,1.4394531 -0.701171,-0.7011719 1.441406,-1.4394531 -0.0039,-0.00391 z"
     id="path10-3" />
</svg>
