<?xml version="1.0" encoding="UTF-8" standalone="no"?>
<svg
   xmlns:dc="http://purl.org/dc/elements/1.1/"
   xmlns:cc="http://creativecommons.org/ns#"
   xmlns:rdf="http://www.w3.org/1999/02/22-rdf-syntax-ns#"
   xmlns:svg="http://www.w3.org/2000/svg"
   xmlns="http://www.w3.org/2000/svg"
   xmlns:sodipodi="http://sodipodi.sourceforge.net/DTD/sodipodi-0.dtd"
   xmlns:inkscape="http://www.inkscape.org/namespaces/inkscape"
   viewBox="0 0 16 16"
   version="1.1"
   id="svg6"
   sodipodi:docname="process-resume.svg"
   width="16"
   height="16"
   inkscape:version="0.92.4 (5da689c313, 2019-01-14)">
  <metadata
     id="metadata10">
    <rdf:RDF>
      <cc:Work
         rdf:about="">
        <dc:format>image/svg+xml</dc:format>
        <dc:type
           rdf:resource="http://purl.org/dc/dcmitype/StillImage" />
        <dc:title />
      </cc:Work>
    </rdf:RDF>
  </metadata>
  <sodipodi:namedview
     pagecolor="#ffffff"
     bordercolor="#666666"
     borderopacity="1"
     objecttolerance="10"
     gridtolerance="10"
     guidetolerance="10"
     inkscape:pageopacity="0"
     inkscape:pageshadow="2"
     inkscape:window-width="1920"
     inkscape:window-height="1016"
     id="namedview8"
     showgrid="false"
     inkscape:zoom="20.85965"
     inkscape:cx="-9.3365077"
     inkscape:cy="10.987099"
     inkscape:window-x="1912"
     inkscape:window-y="-8"
     inkscape:window-maximized="1"
     inkscape:current-layer="svg6" />
  <defs
     id="defs3051">
    <style
       type="text/css"
       id="current-color-scheme">
      .ColorScheme-Text {
        color:#4d4d4d;
      }
      </style>
    <inkscape:path-effect
       effect="bspline"
       id="path-effect851"
       is_visible="true"
       weight="33.333333"
       steps="2"
       helper_size="0"
       apply_no_weight="true"
       apply_with_weight="true"
       only_selected="false" />
  </defs>
  <path
     inkscape:connector-curvature="0"
     style="fill:#4d4d4d;fill-opacity:1;stroke:none"
     class="ColorScheme-NegativeText"
     d="M 7.9999997,2 C 6.7549783,2.001812 5.5413543,2.390881 4.5273435,3.113281 l 0.71875,0.71875 C 6.0627291,3.290888 7.0203429,3.001566 7.9999997,3 10.761424,3 13,5.238576 13,7.9999998 12.9984,8.9796566 12.709112,9.9372705 12.167969,10.753906 l 0.716797,0.716797 C 13.607476,10.457467 13.997215,9.2445665 14,7.9999998 14.000008,4.686294 11.313714,2 7.9999997,2 Z M 3.115234,4.529297 C 2.3925237,5.542533 2.0027848,6.7554332 2,7.9999998 1.9999917,11.313706 4.6862855,14 7.9999997,14 9.2450212,13.99819 10.458645,13.609119 11.472656,12.886719 l -0.71875,-0.71875 C 9.9372704,12.709112 8.9796565,12.998434 7.9999997,13 5.238576,13 2.9999999,10.761423 3,7.9999998 3.0015661,7.0203431 3.2908876,6.0627294 3.8320309,5.246094 Z M 11,8.9999998 H 4.9999997 11 v -2 z"
     id="path4-6"
     sodipodi:nodetypes="ccccccccccccccccccccccc" />
  <path
     style="color:#4d4d4d;fill:#4d4d4d;fill-opacity:1;stroke:none;stroke-width:0.53835088"
     d="M 10.482286,8.0958789 6.7338825,5.1959634 6.2847454,5.5434699 8.8620353,7.5371618 9.6038003,8.0958789 8.8620353,8.6545959 6.2847454,10.648288 6.7338825,10.995795 9.3111721,9.0021024 Z"
     class="ColorScheme-Text"
     id="path4"
     inkscape:connector-curvature="0" />
  <path
     style="color:#4d4d4d;fill:#4d4d4d;fill-opacity:1;stroke:none;stroke-width:0.50506574"
     d="M 6.8843941,10.648288 V 5.5434699 H 6.2847454 v 5.1048181 z"
     id="path4-3-4"
     inkscape:connector-curvature="0" />
  <path
     sodipodi:type="star"
     style="opacity:1;fill:#4d4d4d;fill-opacity:1;fill-rule:nonzero;stroke:#4d4d4d;stroke-width:4.15330076;stroke-linecap:butt;stroke-linejoin:miter;stroke-miterlimit:4;stroke-dasharray:none;stroke-dashoffset:0;stroke-opacity:1;paint-order:fill markers stroke"
     id="path34"
     sodipodi:sides="3"
     sodipodi:cx="7.3289585"
     sodipodi:cy="8"
     sodipodi:r1="0.6111362"
     sodipodi:r2="0.3055681"
     sodipodi:arg1="0"
     sodipodi:arg2="1.0471976"
     inkscape:flatsided="false"
     inkscape:rounded="0"
     inkscape:randomized="0"
     d="M 7.9400947,8 7.4817425,8.2646297 7.0233904,8.5292595 V 8 7.4707405 l 0.4583522,0.2646298 z"
     inkscape:transform-center-x="-0.13756521"
     transform="matrix(0.53991859,0,0,0.5954504,3.7251683,3.3322757)" />
</svg>
